<?xml version="1.0" encoding="utf-8"?>
<svg xmlns="http://www.w3.org/2000/svg" xmlns:xlink="http://www.w3.org/1999/xlink" width="600" height="400" viewBox="0 0 2400 1600">
<defs>
  <clipPath id="clip480">
    <rect x="0" y="0" width="2400" height="1600"/>
  </clipPath>
</defs>
<path clip-path="url(#clip480)" d="M0 1600 L2400 1600 L2400 0 L0 0  Z" fill="#ffffff" fill-rule="evenodd" fill-opacity="1"/>
<defs>
  <clipPath id="clip481">
    <rect x="480" y="0" width="1681" height="1600"/>
  </clipPath>
</defs>
<path clip-path="url(#clip480)" d="M247.459 1486.45 L2352.76 1486.45 L2352.76 123.472 L247.459 123.472  Z" fill="#ffffff" fill-rule="evenodd" fill-opacity="1"/>
<defs>
  <clipPath id="clip482">
    <rect x="247" y="123" width="2106" height="1364"/>
  </clipPath>
</defs>
<polyline clip-path="url(#clip482)" style="stroke:#000000; stroke-linecap:round; stroke-linejoin:round; stroke-width:2; stroke-opacity:0.1; fill:none" points="630.926,1486.45 630.926,123.472 "/>
<polyline clip-path="url(#clip482)" style="stroke:#000000; stroke-linecap:round; stroke-linejoin:round; stroke-width:2; stroke-opacity:0.1; fill:none" points="1300.11,1486.45 1300.11,123.472 "/>
<polyline clip-path="url(#clip482)" style="stroke:#000000; stroke-linecap:round; stroke-linejoin:round; stroke-width:2; stroke-opacity:0.1; fill:none" points="1969.29,1486.45 1969.29,123.472 "/>
<polyline clip-path="url(#clip482)" style="stroke:#000000; stroke-linecap:round; stroke-linejoin:round; stroke-width:2; stroke-opacity:0.1; fill:none" points="247.459,1486.45 2352.76,1486.45 "/>
<polyline clip-path="url(#clip482)" style="stroke:#000000; stroke-linecap:round; stroke-linejoin:round; stroke-width:2; stroke-opacity:0.1; fill:none" points="247.459,1146.95 2352.76,1146.95 "/>
<polyline clip-path="url(#clip482)" style="stroke:#000000; stroke-linecap:round; stroke-linejoin:round; stroke-width:2; stroke-opacity:0.1; fill:none" points="247.459,807.446 2352.76,807.446 "/>
<polyline clip-path="url(#clip482)" style="stroke:#000000; stroke-linecap:round; stroke-linejoin:round; stroke-width:2; stroke-opacity:0.1; fill:none" points="247.459,467.945 2352.76,467.945 "/>
<polyline clip-path="url(#clip482)" style="stroke:#000000; stroke-linecap:round; stroke-linejoin:round; stroke-width:2; stroke-opacity:0.1; fill:none" points="247.459,128.445 2352.76,128.445 "/>
<polyline clip-path="url(#clip480)" style="stroke:#000000; stroke-linecap:round; stroke-linejoin:round; stroke-width:4; stroke-opacity:1; fill:none" points="247.459,1486.45 2352.76,1486.45 "/>
<polyline clip-path="url(#clip480)" style="stroke:#000000; stroke-linecap:round; stroke-linejoin:round; stroke-width:4; stroke-opacity:1; fill:none" points="630.926,1486.45 630.926,1467.55 "/>
<polyline clip-path="url(#clip480)" style="stroke:#000000; stroke-linecap:round; stroke-linejoin:round; stroke-width:4; stroke-opacity:1; fill:none" points="1300.11,1486.45 1300.11,1467.55 "/>
<polyline clip-path="url(#clip480)" style="stroke:#000000; stroke-linecap:round; stroke-linejoin:round; stroke-width:4; stroke-opacity:1; fill:none" points="1969.29,1486.45 1969.29,1467.55 "/>
<path clip-path="url(#clip480)" d="M553.878 1526.9 Q553.16 1526.49 552.304 1526.3 Q551.471 1526.09 550.452 1526.09 Q546.841 1526.09 544.897 1528.45 Q542.975 1530.79 542.975 1535.19 L542.975 1548.85 L538.693 1548.85 L538.693 1522.92 L542.975 1522.92 L542.975 1526.95 Q544.318 1524.59 546.471 1523.45 Q548.623 1522.3 551.702 1522.3 Q552.142 1522.3 552.674 1522.37 Q553.207 1522.41 553.855 1522.53 L553.878 1526.9 Z" fill="#000000" fill-rule="nonzero" fill-opacity="1" /><path clip-path="url(#clip480)" d="M579.48 1534.82 L579.48 1536.9 L559.897 1536.9 Q560.174 1541.3 562.535 1543.62 Q564.92 1545.91 569.156 1545.91 Q571.609 1545.91 573.901 1545.31 Q576.216 1544.7 578.484 1543.5 L578.484 1547.53 Q576.193 1548.5 573.785 1549.01 Q571.378 1549.52 568.901 1549.52 Q562.697 1549.52 559.063 1545.91 Q555.452 1542.3 555.452 1536.14 Q555.452 1529.77 558.878 1526.05 Q562.327 1522.3 568.16 1522.3 Q573.392 1522.3 576.424 1525.68 Q579.48 1529.03 579.48 1534.82 M575.221 1533.57 Q575.174 1530.07 573.253 1527.99 Q571.355 1525.91 568.207 1525.91 Q564.642 1525.91 562.489 1527.92 Q560.359 1529.94 560.035 1533.59 L575.221 1533.57 Z" fill="#000000" fill-rule="nonzero" fill-opacity="1" /><path clip-path="url(#clip480)" d="M603.531 1526.86 L603.531 1512.83 L607.79 1512.83 L607.79 1548.85 L603.531 1548.85 L603.531 1544.96 Q602.188 1547.27 600.128 1548.41 Q598.091 1549.52 595.22 1549.52 Q590.521 1549.52 587.558 1545.77 Q584.619 1542.02 584.619 1535.91 Q584.619 1529.8 587.558 1526.05 Q590.521 1522.3 595.22 1522.3 Q598.091 1522.3 600.128 1523.43 Q602.188 1524.54 603.531 1526.86 M589.017 1535.91 Q589.017 1540.61 590.938 1543.29 Q592.882 1545.95 596.262 1545.95 Q599.642 1545.95 601.586 1543.29 Q603.531 1540.61 603.531 1535.91 Q603.531 1531.21 601.586 1528.55 Q599.642 1525.86 596.262 1525.86 Q592.882 1525.86 590.938 1528.55 Q589.017 1531.21 589.017 1535.91 Z" fill="#000000" fill-rule="nonzero" fill-opacity="1" /><path clip-path="url(#clip480)" d="M616.123 1538.62 L616.123 1522.92 L620.382 1522.92 L620.382 1538.45 Q620.382 1542.13 621.817 1543.99 Q623.253 1545.82 626.123 1545.82 Q629.572 1545.82 631.563 1543.62 Q633.577 1541.42 633.577 1537.62 L633.577 1522.92 L637.836 1522.92 L637.836 1548.85 L633.577 1548.85 L633.577 1544.87 Q632.026 1547.23 629.966 1548.38 Q627.929 1549.52 625.22 1549.52 Q620.753 1549.52 618.438 1546.74 Q616.123 1543.96 616.123 1538.62 M626.841 1522.3 L626.841 1522.3 Z" fill="#000000" fill-rule="nonzero" fill-opacity="1" /><path clip-path="url(#clip480)" d="M665.266 1523.92 L665.266 1527.9 Q663.461 1526.9 661.632 1526.42 Q659.827 1525.91 657.975 1525.91 Q653.831 1525.91 651.54 1528.55 Q649.248 1531.16 649.248 1535.91 Q649.248 1540.65 651.54 1543.29 Q653.831 1545.91 657.975 1545.91 Q659.827 1545.91 661.632 1545.42 Q663.461 1544.91 665.266 1543.92 L665.266 1547.85 Q663.484 1548.69 661.563 1549.1 Q659.665 1549.52 657.512 1549.52 Q651.655 1549.52 648.206 1545.84 Q644.757 1542.16 644.757 1535.91 Q644.757 1529.57 648.229 1525.93 Q651.725 1522.3 657.79 1522.3 Q659.757 1522.3 661.632 1522.71 Q663.507 1523.11 665.266 1523.92 Z" fill="#000000" fill-rule="nonzero" fill-opacity="1" /><path clip-path="url(#clip480)" d="M694.85 1534.82 L694.85 1536.9 L675.266 1536.9 Q675.544 1541.3 677.905 1543.62 Q680.289 1545.91 684.525 1545.91 Q686.979 1545.91 689.271 1545.31 Q691.586 1544.7 693.854 1543.5 L693.854 1547.53 Q691.562 1548.5 689.155 1549.01 Q686.748 1549.52 684.271 1549.52 Q678.067 1549.52 674.433 1545.91 Q670.822 1542.3 670.822 1536.14 Q670.822 1529.77 674.248 1526.05 Q677.697 1522.3 683.53 1522.3 Q688.762 1522.3 691.794 1525.68 Q694.85 1529.03 694.85 1534.82 M690.59 1533.57 Q690.544 1530.07 688.623 1527.99 Q686.725 1525.91 683.576 1525.91 Q680.012 1525.91 677.859 1527.92 Q675.729 1529.94 675.405 1533.59 L690.59 1533.57 Z" fill="#000000" fill-rule="nonzero" fill-opacity="1" /><path clip-path="url(#clip480)" d="M718.9 1526.86 L718.9 1512.83 L723.16 1512.83 L723.16 1548.85 L718.9 1548.85 L718.9 1544.96 Q717.558 1547.27 715.498 1548.41 Q713.461 1549.52 710.59 1549.52 Q705.891 1549.52 702.928 1545.77 Q699.988 1542.02 699.988 1535.91 Q699.988 1529.8 702.928 1526.05 Q705.891 1522.3 710.59 1522.3 Q713.461 1522.3 715.498 1523.43 Q717.558 1524.54 718.9 1526.86 M704.386 1535.91 Q704.386 1540.61 706.308 1543.29 Q708.252 1545.95 711.632 1545.95 Q715.011 1545.95 716.956 1543.29 Q718.9 1540.61 718.9 1535.91 Q718.9 1531.21 716.956 1528.55 Q715.011 1525.86 711.632 1525.86 Q708.252 1525.86 706.308 1528.55 Q704.386 1531.21 704.386 1535.91 Z" fill="#000000" fill-rule="nonzero" fill-opacity="1" /><path clip-path="url(#clip480)" d="M1171.95 1538.62 L1171.95 1522.92 L1176.21 1522.92 L1176.21 1538.45 Q1176.21 1542.13 1177.64 1543.99 Q1179.08 1545.82 1181.95 1545.82 Q1185.4 1545.82 1187.39 1543.62 Q1189.4 1541.42 1189.4 1537.62 L1189.4 1522.92 L1193.66 1522.92 L1193.66 1548.85 L1189.4 1548.85 L1189.4 1544.87 Q1187.85 1547.23 1185.79 1548.38 Q1183.75 1549.52 1181.05 1549.52 Q1176.58 1549.52 1174.26 1546.74 Q1171.95 1543.96 1171.95 1538.62 M1182.67 1522.3 L1182.67 1522.3 Z" fill="#000000" fill-rule="nonzero" fill-opacity="1" /><path clip-path="url(#clip480)" d="M1223.99 1533.2 L1223.99 1548.85 L1219.73 1548.85 L1219.73 1533.34 Q1219.73 1529.66 1218.29 1527.83 Q1216.86 1526 1213.99 1526 Q1210.54 1526 1208.55 1528.2 Q1206.55 1530.4 1206.55 1534.2 L1206.55 1548.85 L1202.27 1548.85 L1202.27 1522.92 L1206.55 1522.92 L1206.55 1526.95 Q1208.08 1524.61 1210.14 1523.45 Q1212.23 1522.3 1214.93 1522.3 Q1219.4 1522.3 1221.69 1525.07 Q1223.99 1527.83 1223.99 1533.2 Z" fill="#000000" fill-rule="nonzero" fill-opacity="1" /><path clip-path="url(#clip480)" d="M1251.14 1523.92 L1251.14 1527.9 Q1249.33 1526.9 1247.5 1526.42 Q1245.7 1525.91 1243.85 1525.91 Q1239.7 1525.91 1237.41 1528.55 Q1235.12 1531.16 1235.12 1535.91 Q1235.12 1540.65 1237.41 1543.29 Q1239.7 1545.91 1243.85 1545.91 Q1245.7 1545.91 1247.5 1545.42 Q1249.33 1544.91 1251.14 1543.92 L1251.14 1547.85 Q1249.36 1548.69 1247.43 1549.1 Q1245.54 1549.52 1243.38 1549.52 Q1237.53 1549.52 1234.08 1545.84 Q1230.63 1542.16 1230.63 1535.91 Q1230.63 1529.57 1234.1 1525.93 Q1237.6 1522.3 1243.66 1522.3 Q1245.63 1522.3 1247.5 1522.71 Q1249.38 1523.11 1251.14 1523.92 Z" fill="#000000" fill-rule="nonzero" fill-opacity="1" /><path clip-path="url(#clip480)" d="M1280.1 1533.2 L1280.1 1548.85 L1275.84 1548.85 L1275.84 1533.34 Q1275.84 1529.66 1274.4 1527.83 Q1272.97 1526 1270.1 1526 Q1266.65 1526 1264.66 1528.2 Q1262.67 1530.4 1262.67 1534.2 L1262.67 1548.85 L1258.38 1548.85 L1258.38 1512.83 L1262.67 1512.83 L1262.67 1526.95 Q1264.19 1524.61 1266.25 1523.45 Q1268.34 1522.3 1271.04 1522.3 Q1275.51 1522.3 1277.8 1525.07 Q1280.1 1527.83 1280.1 1533.2 Z" fill="#000000" fill-rule="nonzero" fill-opacity="1" /><path clip-path="url(#clip480)" d="M1300.37 1535.82 Q1295.21 1535.82 1293.22 1537 Q1291.23 1538.18 1291.23 1541.02 Q1291.23 1543.29 1292.71 1544.63 Q1294.22 1545.95 1296.79 1545.95 Q1300.33 1545.95 1302.46 1543.45 Q1304.61 1540.93 1304.61 1536.76 L1304.61 1535.82 L1300.37 1535.82 M1308.87 1534.06 L1308.87 1548.85 L1304.61 1548.85 L1304.61 1544.91 Q1303.15 1547.27 1300.98 1548.41 Q1298.8 1549.52 1295.65 1549.52 Q1291.67 1549.52 1289.31 1547.3 Q1286.97 1545.05 1286.97 1541.3 Q1286.97 1536.93 1289.89 1534.7 Q1292.83 1532.48 1298.64 1532.48 L1304.61 1532.48 L1304.61 1532.07 Q1304.61 1529.13 1302.67 1527.53 Q1300.74 1525.91 1297.25 1525.91 Q1295.03 1525.91 1292.92 1526.44 Q1290.81 1526.97 1288.87 1528.04 L1288.87 1524.1 Q1291.21 1523.2 1293.41 1522.76 Q1295.61 1522.3 1297.69 1522.3 Q1303.31 1522.3 1306.09 1525.21 Q1308.87 1528.13 1308.87 1534.06 Z" fill="#000000" fill-rule="nonzero" fill-opacity="1" /><path clip-path="url(#clip480)" d="M1339.19 1533.2 L1339.19 1548.85 L1334.93 1548.85 L1334.93 1533.34 Q1334.93 1529.66 1333.5 1527.83 Q1332.06 1526 1329.19 1526 Q1325.74 1526 1323.75 1528.2 Q1321.76 1530.4 1321.76 1534.2 L1321.76 1548.85 L1317.48 1548.85 L1317.48 1522.92 L1321.76 1522.92 L1321.76 1526.95 Q1323.29 1524.61 1325.35 1523.45 Q1327.43 1522.3 1330.14 1522.3 Q1334.61 1522.3 1336.9 1525.07 Q1339.19 1527.83 1339.19 1533.2 Z" fill="#000000" fill-rule="nonzero" fill-opacity="1" /><path clip-path="url(#clip480)" d="M1364.75 1535.58 Q1364.75 1530.95 1362.83 1528.41 Q1360.93 1525.86 1357.48 1525.86 Q1354.05 1525.86 1352.13 1528.41 Q1350.23 1530.95 1350.23 1535.58 Q1350.23 1540.19 1352.13 1542.74 Q1354.05 1545.28 1357.48 1545.28 Q1360.93 1545.28 1362.83 1542.74 Q1364.75 1540.19 1364.75 1535.58 M1369.01 1545.63 Q1369.01 1552.25 1366.07 1555.47 Q1363.13 1558.71 1357.06 1558.71 Q1354.82 1558.71 1352.83 1558.36 Q1350.84 1558.04 1348.96 1557.34 L1348.96 1553.2 Q1350.84 1554.22 1352.66 1554.7 Q1354.49 1555.19 1356.39 1555.19 Q1360.58 1555.19 1362.66 1552.99 Q1364.75 1550.82 1364.75 1546.39 L1364.75 1544.29 Q1363.43 1546.58 1361.37 1547.71 Q1359.31 1548.85 1356.44 1548.85 Q1351.67 1548.85 1348.75 1545.21 Q1345.84 1541.58 1345.84 1535.58 Q1345.84 1529.57 1348.75 1525.93 Q1351.67 1522.3 1356.44 1522.3 Q1359.31 1522.3 1361.37 1523.43 Q1363.43 1524.57 1364.75 1526.86 L1364.75 1522.92 L1369.01 1522.92 L1369.01 1545.63 Z" fill="#000000" fill-rule="nonzero" fill-opacity="1" /><path clip-path="url(#clip480)" d="M1399.96 1534.82 L1399.96 1536.9 L1380.37 1536.9 Q1380.65 1541.3 1383.01 1543.62 Q1385.4 1545.91 1389.63 1545.91 Q1392.09 1545.91 1394.38 1545.31 Q1396.69 1544.7 1398.96 1543.5 L1398.96 1547.53 Q1396.67 1548.5 1394.26 1549.01 Q1391.85 1549.52 1389.38 1549.52 Q1383.17 1549.52 1379.54 1545.91 Q1375.93 1542.3 1375.93 1536.14 Q1375.93 1529.77 1379.35 1526.05 Q1382.8 1522.3 1388.64 1522.3 Q1393.87 1522.3 1396.9 1525.68 Q1399.96 1529.03 1399.96 1534.82 M1395.7 1533.57 Q1395.65 1530.07 1393.73 1527.99 Q1391.83 1525.91 1388.68 1525.91 Q1385.12 1525.91 1382.97 1527.92 Q1380.84 1529.94 1380.51 1533.59 L1395.7 1533.57 Z" fill="#000000" fill-rule="nonzero" fill-opacity="1" /><path clip-path="url(#clip480)" d="M1424.01 1526.86 L1424.01 1512.83 L1428.27 1512.83 L1428.27 1548.85 L1424.01 1548.85 L1424.01 1544.96 Q1422.66 1547.27 1420.6 1548.41 Q1418.57 1549.52 1415.7 1549.52 Q1411 1549.52 1408.03 1545.77 Q1405.1 1542.02 1405.1 1535.91 Q1405.1 1529.8 1408.03 1526.05 Q1411 1522.3 1415.7 1522.3 Q1418.57 1522.3 1420.6 1523.43 Q1422.66 1524.54 1424.01 1526.86 M1409.49 1535.91 Q1409.49 1540.61 1411.41 1543.29 Q1413.36 1545.95 1416.74 1545.95 Q1420.12 1545.95 1422.06 1543.29 Q1424.01 1540.61 1424.01 1535.91 Q1424.01 1531.21 1422.06 1528.55 Q1420.12 1525.86 1416.74 1525.86 Q1413.36 1525.86 1411.41 1528.55 Q1409.49 1531.21 1409.49 1535.91 Z" fill="#000000" fill-rule="nonzero" fill-opacity="1" /><path clip-path="url(#clip480)" d="M1858.72 1522.92 L1862.98 1522.92 L1862.98 1548.85 L1858.72 1548.85 L1858.72 1522.92 M1858.72 1512.83 L1862.98 1512.83 L1862.98 1518.22 L1858.72 1518.22 L1858.72 1512.83 Z" fill="#000000" fill-rule="nonzero" fill-opacity="1" /><path clip-path="url(#clip480)" d="M1893.44 1533.2 L1893.44 1548.85 L1889.18 1548.85 L1889.18 1533.34 Q1889.18 1529.66 1887.75 1527.83 Q1886.31 1526 1883.44 1526 Q1879.99 1526 1878 1528.2 Q1876.01 1530.4 1876.01 1534.2 L1876.01 1548.85 L1871.73 1548.85 L1871.73 1522.92 L1876.01 1522.92 L1876.01 1526.95 Q1877.54 1524.61 1879.6 1523.45 Q1881.68 1522.3 1884.39 1522.3 Q1888.86 1522.3 1891.15 1525.07 Q1893.44 1527.83 1893.44 1533.2 Z" fill="#000000" fill-rule="nonzero" fill-opacity="1" /><path clip-path="url(#clip480)" d="M1920.6 1523.92 L1920.6 1527.9 Q1918.79 1526.9 1916.96 1526.42 Q1915.16 1525.91 1913.3 1525.91 Q1909.16 1525.91 1906.87 1528.55 Q1904.58 1531.16 1904.58 1535.91 Q1904.58 1540.65 1906.87 1543.29 Q1909.16 1545.91 1913.3 1545.91 Q1915.16 1545.91 1916.96 1545.42 Q1918.79 1544.91 1920.6 1543.92 L1920.6 1547.85 Q1918.81 1548.69 1916.89 1549.1 Q1914.99 1549.52 1912.84 1549.52 Q1906.99 1549.52 1903.54 1545.84 Q1900.09 1542.16 1900.09 1535.91 Q1900.09 1529.57 1903.56 1525.93 Q1907.05 1522.3 1913.12 1522.3 Q1915.09 1522.3 1916.96 1522.71 Q1918.84 1523.11 1920.6 1523.92 Z" fill="#000000" fill-rule="nonzero" fill-opacity="1" /><path clip-path="url(#clip480)" d="M1943.03 1526.9 Q1942.31 1526.49 1941.45 1526.3 Q1940.62 1526.09 1939.6 1526.09 Q1935.99 1526.09 1934.05 1528.45 Q1932.12 1530.79 1932.12 1535.19 L1932.12 1548.85 L1927.84 1548.85 L1927.84 1522.92 L1932.12 1522.92 L1932.12 1526.95 Q1933.47 1524.59 1935.62 1523.45 Q1937.77 1522.3 1940.85 1522.3 Q1941.29 1522.3 1941.82 1522.37 Q1942.36 1522.41 1943 1522.53 L1943.03 1526.9 Z" fill="#000000" fill-rule="nonzero" fill-opacity="1" /><path clip-path="url(#clip480)" d="M1968.63 1534.82 L1968.63 1536.9 L1949.05 1536.9 Q1949.32 1541.3 1951.68 1543.62 Q1954.07 1545.91 1958.3 1545.91 Q1960.76 1545.91 1963.05 1545.31 Q1965.36 1544.7 1967.63 1543.5 L1967.63 1547.53 Q1965.34 1548.5 1962.93 1549.01 Q1960.53 1549.52 1958.05 1549.52 Q1951.85 1549.52 1948.21 1545.91 Q1944.6 1542.3 1944.6 1536.14 Q1944.6 1529.77 1948.03 1526.05 Q1951.48 1522.3 1957.31 1522.3 Q1962.54 1522.3 1965.57 1525.68 Q1968.63 1529.03 1968.63 1534.82 M1964.37 1533.57 Q1964.32 1530.07 1962.4 1527.99 Q1960.5 1525.91 1957.36 1525.91 Q1953.79 1525.91 1951.64 1527.92 Q1949.51 1529.94 1949.18 1533.59 L1964.37 1533.57 Z" fill="#000000" fill-rule="nonzero" fill-opacity="1" /><path clip-path="url(#clip480)" d="M1987.4 1535.82 Q1982.24 1535.82 1980.25 1537 Q1978.26 1538.18 1978.26 1541.02 Q1978.26 1543.29 1979.74 1544.63 Q1981.24 1545.95 1983.81 1545.95 Q1987.36 1545.95 1989.49 1543.45 Q1991.64 1540.93 1991.64 1536.76 L1991.64 1535.82 L1987.4 1535.82 M1995.9 1534.06 L1995.9 1548.85 L1991.64 1548.85 L1991.64 1544.91 Q1990.18 1547.27 1988 1548.41 Q1985.83 1549.52 1982.68 1549.52 Q1978.7 1549.52 1976.34 1547.3 Q1974 1545.05 1974 1541.3 Q1974 1536.93 1976.92 1534.7 Q1979.86 1532.48 1985.67 1532.48 L1991.64 1532.48 L1991.64 1532.07 Q1991.64 1529.13 1989.69 1527.53 Q1987.77 1525.91 1984.28 1525.91 Q1982.05 1525.91 1979.95 1526.44 Q1977.84 1526.97 1975.9 1528.04 L1975.9 1524.1 Q1978.24 1523.2 1980.43 1522.76 Q1982.63 1522.3 1984.72 1522.3 Q1990.34 1522.3 1993.12 1525.21 Q1995.9 1528.13 1995.9 1534.06 Z" fill="#000000" fill-rule="nonzero" fill-opacity="1" /><path clip-path="url(#clip480)" d="M2021.2 1523.69 L2021.2 1527.71 Q2019.39 1526.79 2017.45 1526.32 Q2015.5 1525.86 2013.42 1525.86 Q2010.25 1525.86 2008.65 1526.83 Q2007.08 1527.81 2007.08 1529.75 Q2007.08 1531.23 2008.21 1532.09 Q2009.35 1532.92 2012.77 1533.69 L2014.23 1534.01 Q2018.77 1534.98 2020.67 1536.76 Q2022.59 1538.52 2022.59 1541.7 Q2022.59 1545.31 2019.72 1547.41 Q2016.87 1549.52 2011.87 1549.52 Q2009.79 1549.52 2007.52 1549.1 Q2005.27 1548.71 2002.77 1547.9 L2002.77 1543.5 Q2005.13 1544.73 2007.42 1545.35 Q2009.72 1545.95 2011.96 1545.95 Q2014.97 1545.95 2016.59 1544.94 Q2018.21 1543.89 2018.21 1542.02 Q2018.21 1540.28 2017.03 1539.36 Q2015.87 1538.43 2011.92 1537.57 L2010.43 1537.23 Q2006.48 1536.39 2004.72 1534.68 Q2002.96 1532.95 2002.96 1529.94 Q2002.96 1526.28 2005.55 1524.29 Q2008.14 1522.3 2012.91 1522.3 Q2015.27 1522.3 2017.36 1522.64 Q2019.44 1522.99 2021.2 1523.69 Z" fill="#000000" fill-rule="nonzero" fill-opacity="1" /><path clip-path="url(#clip480)" d="M2051.54 1534.82 L2051.54 1536.9 L2031.96 1536.9 Q2032.24 1541.3 2034.6 1543.62 Q2036.98 1545.91 2041.22 1545.91 Q2043.67 1545.91 2045.97 1545.31 Q2048.28 1544.7 2050.55 1543.5 L2050.55 1547.53 Q2048.26 1548.5 2045.85 1549.01 Q2043.44 1549.52 2040.97 1549.52 Q2034.76 1549.52 2031.13 1545.91 Q2027.52 1542.3 2027.52 1536.14 Q2027.52 1529.77 2030.94 1526.05 Q2034.39 1522.3 2040.23 1522.3 Q2045.46 1522.3 2048.49 1525.68 Q2051.54 1529.03 2051.54 1534.82 M2047.29 1533.57 Q2047.24 1530.07 2045.32 1527.99 Q2043.42 1525.91 2040.27 1525.91 Q2036.71 1525.91 2034.55 1527.92 Q2032.42 1529.94 2032.1 1533.59 L2047.29 1533.57 Z" fill="#000000" fill-rule="nonzero" fill-opacity="1" /><path clip-path="url(#clip480)" d="M2075.6 1526.86 L2075.6 1512.83 L2079.85 1512.83 L2079.85 1548.85 L2075.6 1548.85 L2075.6 1544.96 Q2074.25 1547.27 2072.19 1548.41 Q2070.16 1549.52 2067.29 1549.52 Q2062.59 1549.52 2059.62 1545.77 Q2056.68 1542.02 2056.68 1535.91 Q2056.68 1529.8 2059.62 1526.05 Q2062.59 1522.3 2067.29 1522.3 Q2070.16 1522.3 2072.19 1523.43 Q2074.25 1524.54 2075.6 1526.86 M2061.08 1535.91 Q2061.08 1540.61 2063 1543.29 Q2064.95 1545.95 2068.33 1545.95 Q2071.71 1545.95 2073.65 1543.29 Q2075.6 1540.61 2075.6 1535.91 Q2075.6 1531.21 2073.65 1528.55 Q2071.71 1525.86 2068.33 1525.86 Q2064.95 1525.86 2063 1528.55 Q2061.08 1531.21 2061.08 1535.91 Z" fill="#000000" fill-rule="nonzero" fill-opacity="1" /><polyline clip-path="url(#clip480)" style="stroke:#000000; stroke-linecap:round; stroke-linejoin:round; stroke-width:4; stroke-opacity:1; fill:none" points="247.459,1486.45 247.459,123.472 "/>
<polyline clip-path="url(#clip480)" style="stroke:#000000; stroke-linecap:round; stroke-linejoin:round; stroke-width:4; stroke-opacity:1; fill:none" points="247.459,1486.45 266.356,1486.45 "/>
<polyline clip-path="url(#clip480)" style="stroke:#000000; stroke-linecap:round; stroke-linejoin:round; stroke-width:4; stroke-opacity:1; fill:none" points="247.459,1146.95 266.356,1146.95 "/>
<polyline clip-path="url(#clip480)" style="stroke:#000000; stroke-linecap:round; stroke-linejoin:round; stroke-width:4; stroke-opacity:1; fill:none" points="247.459,807.446 266.356,807.446 "/>
<polyline clip-path="url(#clip480)" style="stroke:#000000; stroke-linecap:round; stroke-linejoin:round; stroke-width:4; stroke-opacity:1; fill:none" points="247.459,467.945 266.356,467.945 "/>
<polyline clip-path="url(#clip480)" style="stroke:#000000; stroke-linecap:round; stroke-linejoin:round; stroke-width:4; stroke-opacity:1; fill:none" points="247.459,128.445 266.356,128.445 "/>
<path clip-path="url(#clip480)" d="M154.283 1472.25 Q150.672 1472.25 148.843 1475.81 Q147.038 1479.35 147.038 1486.48 Q147.038 1493.59 148.843 1497.15 Q150.672 1500.7 154.283 1500.7 Q157.917 1500.7 159.723 1497.15 Q161.552 1493.59 161.552 1486.48 Q161.552 1479.35 159.723 1475.81 Q157.917 1472.25 154.283 1472.25 M154.283 1468.54 Q160.093 1468.54 163.149 1473.15 Q166.227 1477.73 166.227 1486.48 Q166.227 1495.21 163.149 1499.82 Q160.093 1504.4 154.283 1504.4 Q148.473 1504.4 145.394 1499.82 Q142.339 1495.21 142.339 1486.48 Q142.339 1477.73 145.394 1473.15 Q148.473 1468.54 154.283 1468.54 Z" fill="#000000" fill-rule="nonzero" fill-opacity="1" /><path clip-path="url(#clip480)" d="M174.445 1497.85 L179.329 1497.85 L179.329 1503.73 L174.445 1503.73 L174.445 1497.85 Z" fill="#000000" fill-rule="nonzero" fill-opacity="1" /><path clip-path="url(#clip480)" d="M199.514 1472.25 Q195.903 1472.25 194.075 1475.81 Q192.269 1479.35 192.269 1486.48 Q192.269 1493.59 194.075 1497.15 Q195.903 1500.7 199.514 1500.7 Q203.149 1500.7 204.954 1497.15 Q206.783 1493.59 206.783 1486.48 Q206.783 1479.35 204.954 1475.81 Q203.149 1472.25 199.514 1472.25 M199.514 1468.54 Q205.324 1468.54 208.38 1473.15 Q211.459 1477.73 211.459 1486.48 Q211.459 1495.21 208.38 1499.82 Q205.324 1504.4 199.514 1504.4 Q193.704 1504.4 190.625 1499.82 Q187.57 1495.21 187.57 1486.48 Q187.57 1477.73 190.625 1473.15 Q193.704 1468.54 199.514 1468.54 Z" fill="#000000" fill-rule="nonzero" fill-opacity="1" /><path clip-path="url(#clip480)" d="M149.306 1160.29 L165.626 1160.29 L165.626 1164.23 L143.681 1164.23 L143.681 1160.29 Q146.343 1157.54 150.927 1152.91 Q155.533 1148.25 156.714 1146.91 Q158.959 1144.39 159.839 1142.65 Q160.741 1140.89 160.741 1139.2 Q160.741 1136.45 158.797 1134.71 Q156.876 1132.98 153.774 1132.98 Q151.575 1132.98 149.121 1133.74 Q146.691 1134.5 143.913 1136.06 L143.913 1131.33 Q146.737 1130.2 149.191 1129.62 Q151.644 1129.04 153.681 1129.04 Q159.052 1129.04 162.246 1131.73 Q165.44 1134.41 165.44 1138.9 Q165.44 1141.03 164.63 1142.95 Q163.843 1144.85 161.737 1147.44 Q161.158 1148.12 158.056 1151.33 Q154.954 1154.53 149.306 1160.29 Z" fill="#000000" fill-rule="nonzero" fill-opacity="1" /><path clip-path="url(#clip480)" d="M175.44 1158.35 L180.325 1158.35 L180.325 1164.23 L175.44 1164.23 L175.44 1158.35 Z" fill="#000000" fill-rule="nonzero" fill-opacity="1" /><path clip-path="url(#clip480)" d="M190.556 1129.67 L208.912 1129.67 L208.912 1133.6 L194.838 1133.6 L194.838 1142.07 Q195.857 1141.73 196.875 1141.57 Q197.894 1141.38 198.912 1141.38 Q204.699 1141.38 208.079 1144.55 Q211.459 1147.72 211.459 1153.14 Q211.459 1158.72 207.987 1161.82 Q204.514 1164.9 198.195 1164.9 Q196.019 1164.9 193.75 1164.53 Q191.505 1164.16 189.098 1163.42 L189.098 1158.72 Q191.181 1159.85 193.403 1160.41 Q195.625 1160.96 198.102 1160.96 Q202.107 1160.96 204.445 1158.86 Q206.783 1156.75 206.783 1153.14 Q206.783 1149.53 204.445 1147.42 Q202.107 1145.32 198.102 1145.32 Q196.227 1145.32 194.352 1145.73 Q192.5 1146.15 190.556 1147.03 L190.556 1129.67 Z" fill="#000000" fill-rule="nonzero" fill-opacity="1" /><path clip-path="url(#clip480)" d="M144.329 790.166 L162.686 790.166 L162.686 794.101 L148.612 794.101 L148.612 802.574 Q149.63 802.226 150.649 802.064 Q151.667 801.879 152.686 801.879 Q158.473 801.879 161.852 805.05 Q165.232 808.222 165.232 813.638 Q165.232 819.217 161.76 822.319 Q158.288 825.398 151.968 825.398 Q149.792 825.398 147.524 825.027 Q145.279 824.657 142.871 823.916 L142.871 819.217 Q144.954 820.351 147.177 820.907 Q149.399 821.462 151.876 821.462 Q155.88 821.462 158.218 819.356 Q160.556 817.249 160.556 813.638 Q160.556 810.027 158.218 807.921 Q155.88 805.814 151.876 805.814 Q150.001 805.814 148.126 806.231 Q146.274 806.648 144.329 807.527 L144.329 790.166 Z" fill="#000000" fill-rule="nonzero" fill-opacity="1" /><path clip-path="url(#clip480)" d="M174.445 818.847 L179.329 818.847 L179.329 824.726 L174.445 824.726 L174.445 818.847 Z" fill="#000000" fill-rule="nonzero" fill-opacity="1" /><path clip-path="url(#clip480)" d="M199.514 793.245 Q195.903 793.245 194.075 796.81 Q192.269 800.351 192.269 807.481 Q192.269 814.587 194.075 818.152 Q195.903 821.694 199.514 821.694 Q203.149 821.694 204.954 818.152 Q206.783 814.587 206.783 807.481 Q206.783 800.351 204.954 796.81 Q203.149 793.245 199.514 793.245 M199.514 789.541 Q205.324 789.541 208.38 794.148 Q211.459 798.731 211.459 807.481 Q211.459 816.208 208.38 820.814 Q205.324 825.398 199.514 825.398 Q193.704 825.398 190.625 820.814 Q187.57 816.208 187.57 807.481 Q187.57 798.731 190.625 794.148 Q193.704 789.541 199.514 789.541 Z" fill="#000000" fill-rule="nonzero" fill-opacity="1" /><path clip-path="url(#clip480)" d="M144.098 450.665 L166.32 450.665 L166.32 452.656 L153.774 485.225 L148.89 485.225 L160.695 454.601 L144.098 454.601 L144.098 450.665 Z" fill="#000000" fill-rule="nonzero" fill-opacity="1" /><path clip-path="url(#clip480)" d="M175.44 479.346 L180.325 479.346 L180.325 485.225 L175.44 485.225 L175.44 479.346 Z" fill="#000000" fill-rule="nonzero" fill-opacity="1" /><path clip-path="url(#clip480)" d="M190.556 450.665 L208.912 450.665 L208.912 454.601 L194.838 454.601 L194.838 463.073 Q195.857 462.726 196.875 462.563 Q197.894 462.378 198.912 462.378 Q204.699 462.378 208.079 465.55 Q211.459 468.721 211.459 474.138 Q211.459 479.716 207.987 482.818 Q204.514 485.897 198.195 485.897 Q196.019 485.897 193.75 485.526 Q191.505 485.156 189.098 484.415 L189.098 479.716 Q191.181 480.85 193.403 481.406 Q195.625 481.962 198.102 481.962 Q202.107 481.962 204.445 479.855 Q206.783 477.749 206.783 474.138 Q206.783 470.526 204.445 468.42 Q202.107 466.313 198.102 466.313 Q196.227 466.313 194.352 466.73 Q192.5 467.147 190.556 468.026 L190.556 450.665 Z" fill="#000000" fill-rule="nonzero" fill-opacity="1" /><path clip-path="url(#clip480)" d="M114.931 141.789 L122.57 141.789 L122.57 115.424 L114.26 117.09 L114.26 112.831 L122.524 111.165 L127.2 111.165 L127.2 141.789 L134.839 141.789 L134.839 145.725 L114.931 145.725 L114.931 141.789 Z" fill="#000000" fill-rule="nonzero" fill-opacity="1" /><path clip-path="url(#clip480)" d="M154.283 114.243 Q150.672 114.243 148.843 117.808 Q147.038 121.35 147.038 128.479 Q147.038 135.586 148.843 139.151 Q150.672 142.692 154.283 142.692 Q157.917 142.692 159.723 139.151 Q161.552 135.586 161.552 128.479 Q161.552 121.35 159.723 117.808 Q157.917 114.243 154.283 114.243 M154.283 110.54 Q160.093 110.54 163.149 115.146 Q166.227 119.729 166.227 128.479 Q166.227 137.206 163.149 141.813 Q160.093 146.396 154.283 146.396 Q148.473 146.396 145.394 141.813 Q142.339 137.206 142.339 128.479 Q142.339 119.729 145.394 115.146 Q148.473 110.54 154.283 110.54 Z" fill="#000000" fill-rule="nonzero" fill-opacity="1" /><path clip-path="url(#clip480)" d="M174.445 139.845 L179.329 139.845 L179.329 145.725 L174.445 145.725 L174.445 139.845 Z" fill="#000000" fill-rule="nonzero" fill-opacity="1" /><path clip-path="url(#clip480)" d="M199.514 114.243 Q195.903 114.243 194.075 117.808 Q192.269 121.35 192.269 128.479 Q192.269 135.586 194.075 139.151 Q195.903 142.692 199.514 142.692 Q203.149 142.692 204.954 139.151 Q206.783 135.586 206.783 128.479 Q206.783 121.35 204.954 117.808 Q203.149 114.243 199.514 114.243 M199.514 110.54 Q205.324 110.54 208.38 115.146 Q211.459 119.729 211.459 128.479 Q211.459 137.206 208.38 141.813 Q205.324 146.396 199.514 146.396 Q193.704 146.396 190.625 141.813 Q187.57 137.206 187.57 128.479 Q187.57 119.729 190.625 115.146 Q193.704 110.54 199.514 110.54 Z" fill="#000000" fill-rule="nonzero" fill-opacity="1" /><path clip-path="url(#clip480)" d="M20.1444 860.819 L26.9239 860.819 Q23.9002 864.066 22.4043 867.758 Q20.9083 871.418 20.9083 875.556 Q20.9083 883.704 25.9054 888.032 Q30.8707 892.361 40.2919 892.361 Q49.6813 892.361 54.6784 888.032 Q59.6436 883.704 59.6436 875.556 Q59.6436 871.418 58.1477 867.758 Q56.6518 864.066 53.6281 860.819 L60.3439 860.819 Q62.6355 864.193 63.7814 867.98 Q64.9272 871.736 64.9272 875.938 Q64.9272 886.728 58.3387 892.934 Q51.7183 899.141 40.2919 899.141 Q28.8336 899.141 22.2451 892.934 Q15.6248 886.728 15.6248 875.938 Q15.6248 871.673 16.7706 867.917 Q17.8846 864.129 20.1444 860.819 Z" fill="#000000" fill-rule="nonzero" fill-opacity="1" /><path clip-path="url(#clip480)" d="M32.4621 837.33 Q32.4621 842.04 36.1542 844.777 Q39.8145 847.515 46.212 847.515 Q52.6095 847.515 56.3017 844.809 Q59.9619 842.072 59.9619 837.33 Q59.9619 832.651 56.2698 829.914 Q52.5777 827.176 46.212 827.176 Q39.8781 827.176 36.186 829.914 Q32.4621 832.651 32.4621 837.33 M27.4968 837.33 Q27.4968 829.691 32.4621 825.33 Q37.4273 820.97 46.212 820.97 Q54.9649 820.97 59.9619 825.33 Q64.9272 829.691 64.9272 837.33 Q64.9272 845 59.9619 849.361 Q54.9649 853.689 46.212 853.689 Q37.4273 853.689 32.4621 849.361 Q27.4968 845 27.4968 837.33 Z" fill="#000000" fill-rule="nonzero" fill-opacity="1" /><path clip-path="url(#clip480)" d="M49.9359 811.867 L28.3562 811.867 L28.3562 806.01 L49.7131 806.01 Q54.7739 806.01 57.3202 804.037 Q59.8346 802.064 59.8346 798.117 Q59.8346 793.374 56.8109 790.637 Q53.7872 787.868 48.5673 787.868 L28.3562 787.868 L28.3562 782.012 L64.0042 782.012 L64.0042 787.868 L58.5296 787.868 Q61.7762 790.001 63.3676 792.833 Q64.9272 795.634 64.9272 799.358 Q64.9272 805.501 61.1078 808.684 Q57.2883 811.867 49.9359 811.867 M27.4968 797.13 L27.4968 797.13 Z" fill="#000000" fill-rule="nonzero" fill-opacity="1" /><path clip-path="url(#clip480)" d="M42.4881 740.316 L64.0042 740.316 L64.0042 746.173 L42.679 746.173 Q37.6183 746.173 35.1038 748.146 Q32.5894 750.119 32.5894 754.066 Q32.5894 758.809 35.6131 761.546 Q38.6368 764.283 43.8567 764.283 L64.0042 764.283 L64.0042 770.171 L28.3562 770.171 L28.3562 764.283 L33.8944 764.283 Q30.6797 762.182 29.0883 759.35 Q27.4968 756.485 27.4968 752.761 Q27.4968 746.618 31.3163 743.467 Q35.1038 740.316 42.4881 740.316 Z" fill="#000000" fill-rule="nonzero" fill-opacity="1" /><path clip-path="url(#clip480)" d="M18.2347 722.842 L28.3562 722.842 L28.3562 710.779 L32.9077 710.779 L32.9077 722.842 L52.2594 722.842 Q56.6199 722.842 57.8613 721.665 Q59.1026 720.455 59.1026 716.795 L59.1026 710.779 L64.0042 710.779 L64.0042 716.795 Q64.0042 723.574 61.4897 726.153 Q58.9434 728.731 52.2594 728.731 L32.9077 728.731 L32.9077 733.028 L28.3562 733.028 L28.3562 728.731 L18.2347 728.731 L18.2347 722.842 Z" fill="#000000" fill-rule="nonzero" fill-opacity="1" /><path clip-path="url(#clip480)" d="M923.758 16.7545 L923.758 25.383 Q919.626 21.5346 914.927 19.6307 Q910.269 17.7268 905.002 17.7268 Q894.632 17.7268 889.123 24.0867 Q883.614 30.4061 883.614 42.3968 Q883.614 54.3469 889.123 60.7069 Q894.632 67.0263 905.002 67.0263 Q910.269 67.0263 914.927 65.1223 Q919.626 63.2184 923.758 59.3701 L923.758 67.9175 Q919.464 70.8341 914.644 72.2924 Q909.863 73.7508 904.516 73.7508 Q890.784 73.7508 882.884 65.3654 Q874.985 56.9395 874.985 42.3968 Q874.985 27.8135 882.884 19.4281 Q890.784 11.0023 904.516 11.0023 Q909.944 11.0023 914.725 12.4606 Q919.545 13.8784 923.758 16.7545 Z" fill="#000000" fill-rule="nonzero" fill-opacity="1" /><path clip-path="url(#clip480)" d="M935.303 54.671 L935.303 27.2059 L942.757 27.2059 L942.757 54.3874 Q942.757 60.8284 945.268 64.0691 Q947.78 67.2693 952.803 67.2693 Q958.839 67.2693 962.323 63.421 Q965.847 59.5726 965.847 52.9291 L965.847 27.2059 L973.301 27.2059 L973.301 72.576 L965.847 72.576 L965.847 65.6084 Q963.133 69.7404 959.528 71.7658 Q955.963 73.7508 951.223 73.7508 Q943.405 73.7508 939.354 68.8897 Q935.303 64.0286 935.303 54.671 M954.059 26.1121 L954.059 26.1121 Z" fill="#000000" fill-rule="nonzero" fill-opacity="1" /><path clip-path="url(#clip480)" d="M1017.58 28.5427 L1017.58 35.5912 Q1014.42 33.9709 1011.01 33.1607 Q1007.61 32.3505 1003.97 32.3505 Q998.416 32.3505 995.621 34.0519 Q992.866 35.7533 992.866 39.156 Q992.866 41.7486 994.851 43.2475 Q996.836 44.7058 1002.83 46.0426 L1005.38 46.6097 Q1013.32 48.3111 1016.65 51.4303 Q1020.01 54.509 1020.01 60.0587 Q1020.01 66.3781 1014.98 70.0644 Q1010 73.7508 1001.25 73.7508 Q997.606 73.7508 993.636 73.0216 Q989.707 72.3329 985.332 70.9151 L985.332 63.2184 Q989.464 65.3654 993.474 66.4591 Q997.485 67.5124 1001.41 67.5124 Q1006.68 67.5124 1009.52 65.73 Q1012.35 63.9071 1012.35 60.6258 Q1012.35 57.5877 1010.29 55.9673 Q1008.26 54.3469 1001.33 52.8481 L998.74 52.2405 Q991.813 50.7821 988.735 47.7845 Q985.656 44.7463 985.656 39.4801 Q985.656 33.0797 990.193 29.5959 Q994.73 26.1121 1003.07 26.1121 Q1007.21 26.1121 1010.85 26.7198 Q1014.5 27.3274 1017.58 28.5427 Z" fill="#000000" fill-rule="nonzero" fill-opacity="1" /><path clip-path="url(#clip480)" d="M1039.25 14.324 L1039.25 27.2059 L1054.6 27.2059 L1054.6 32.9987 L1039.25 32.9987 L1039.25 57.6282 Q1039.25 63.1779 1040.75 64.7578 Q1042.29 66.3376 1046.95 66.3376 L1054.6 66.3376 L1054.6 72.576 L1046.95 72.576 Q1038.32 72.576 1035.04 69.3758 Q1031.76 66.1351 1031.76 57.6282 L1031.76 32.9987 L1026.29 32.9987 L1026.29 27.2059 L1031.76 27.2059 L1031.76 14.324 L1039.25 14.324 Z" fill="#000000" fill-rule="nonzero" fill-opacity="1" /><path clip-path="url(#clip480)" d="M1081.99 32.4315 Q1075.99 32.4315 1072.51 37.1306 Q1069.02 41.7891 1069.02 49.9314 Q1069.02 58.0738 1072.47 62.7728 Q1075.95 67.4314 1081.99 67.4314 Q1087.94 67.4314 1091.42 62.7323 Q1094.91 58.0333 1094.91 49.9314 Q1094.91 41.8701 1091.42 37.1711 Q1087.94 32.4315 1081.99 32.4315 M1081.99 26.1121 Q1091.71 26.1121 1097.26 32.4315 Q1102.81 38.7509 1102.81 49.9314 Q1102.81 61.0714 1097.26 67.4314 Q1091.71 73.7508 1081.99 73.7508 Q1072.22 73.7508 1066.67 67.4314 Q1061.16 61.0714 1061.16 49.9314 Q1061.16 38.7509 1066.67 32.4315 Q1072.22 26.1121 1081.99 26.1121 Z" fill="#000000" fill-rule="nonzero" fill-opacity="1" /><path clip-path="url(#clip480)" d="M1150.49 35.9153 Q1153.28 30.8922 1157.17 28.5022 Q1161.06 26.1121 1166.33 26.1121 Q1173.42 26.1121 1177.26 31.0947 Q1181.11 36.0368 1181.11 45.1919 L1181.11 72.576 L1173.62 72.576 L1173.62 45.4349 Q1173.62 38.913 1171.31 35.7533 Q1169 32.5936 1164.26 32.5936 Q1158.47 32.5936 1155.11 36.4419 Q1151.74 40.2903 1151.74 46.9338 L1151.74 72.576 L1144.25 72.576 L1144.25 45.4349 Q1144.25 38.8725 1141.94 35.7533 Q1139.63 32.5936 1134.81 32.5936 Q1129.1 32.5936 1125.74 36.4824 Q1122.37 40.3308 1122.37 46.9338 L1122.37 72.576 L1114.88 72.576 L1114.88 27.2059 L1122.37 27.2059 L1122.37 34.2544 Q1124.93 30.082 1128.49 28.0971 Q1132.06 26.1121 1136.96 26.1121 Q1141.9 26.1121 1145.34 28.6237 Q1148.83 31.1352 1150.49 35.9153 Z" fill="#000000" fill-rule="nonzero" fill-opacity="1" /><path clip-path="url(#clip480)" d="M1229.4 6.22219 L1240.82 21.3726 L1234.62 21.3726 L1221.42 6.22219 L1229.4 6.22219 Z" fill="#000000" fill-rule="nonzero" fill-opacity="1" /><path clip-path="url(#clip480)" d="M1294.17 20.5624 L1294.17 43.1259 L1316.74 43.1259 L1316.74 50.0125 L1294.17 50.0125 L1294.17 72.576 L1287.37 72.576 L1287.37 50.0125 L1264.8 50.0125 L1264.8 43.1259 L1287.37 43.1259 L1287.37 20.5624 L1294.17 20.5624 Z" fill="#000000" fill-rule="nonzero" fill-opacity="1" /><path clip-path="url(#clip480)" d="M1340.39 6.22219 L1351.82 21.3726 L1345.62 21.3726 L1332.41 6.22219 L1340.39 6.22219 Z" fill="#000000" fill-rule="nonzero" fill-opacity="1" /><path clip-path="url(#clip480)" d="M1424.17 9.54393 L1424.17 15.7418 L1417.04 15.7418 Q1413.03 15.7418 1411.45 17.3622 Q1409.91 18.9825 1409.91 23.1955 L1409.91 27.2059 L1422.18 27.2059 L1422.18 32.9987 L1409.91 32.9987 L1409.91 72.576 L1402.41 72.576 L1402.41 32.9987 L1395.28 32.9987 L1395.28 27.2059 L1402.41 27.2059 L1402.41 24.0462 Q1402.41 16.471 1405.94 13.0277 Q1409.46 9.54393 1417.12 9.54393 L1424.17 9.54393 Z" fill="#000000" fill-rule="nonzero" fill-opacity="1" /><path clip-path="url(#clip480)" d="M1429.63 54.671 L1429.63 27.2059 L1437.09 27.2059 L1437.09 54.3874 Q1437.09 60.8284 1439.6 64.0691 Q1442.11 67.2693 1447.13 67.2693 Q1453.17 67.2693 1456.65 63.421 Q1460.18 59.5726 1460.18 52.9291 L1460.18 27.2059 L1467.63 27.2059 L1467.63 72.576 L1460.18 72.576 L1460.18 65.6084 Q1457.46 69.7404 1453.86 71.7658 Q1450.29 73.7508 1445.56 73.7508 Q1437.74 73.7508 1433.69 68.8897 Q1429.63 64.0286 1429.63 54.671 M1448.39 26.1121 L1448.39 26.1121 Z" fill="#000000" fill-rule="nonzero" fill-opacity="1" /><path clip-path="url(#clip480)" d="M1520.7 45.1919 L1520.7 72.576 L1513.25 72.576 L1513.25 45.4349 Q1513.25 38.994 1510.73 35.7938 Q1508.22 32.5936 1503.2 32.5936 Q1497.16 32.5936 1493.68 36.4419 Q1490.2 40.2903 1490.2 46.9338 L1490.2 72.576 L1482.7 72.576 L1482.7 27.2059 L1490.2 27.2059 L1490.2 34.2544 Q1492.87 30.163 1496.47 28.1376 Q1500.12 26.1121 1504.86 26.1121 Q1512.68 26.1121 1516.69 30.9732 Q1520.7 35.7938 1520.7 45.1919 Z" fill="#000000" fill-rule="nonzero" fill-opacity="1" /><path clip-path="url(#clip480)" d="M1568.22 28.9478 L1568.22 35.9153 Q1565.06 34.1734 1561.86 33.3227 Q1558.7 32.4315 1555.46 32.4315 Q1548.2 32.4315 1544.19 37.0496 Q1540.18 41.6271 1540.18 49.9314 Q1540.18 58.2358 1544.19 62.8538 Q1548.2 67.4314 1555.46 67.4314 Q1558.7 67.4314 1561.86 66.5807 Q1565.06 65.6895 1568.22 63.9476 L1568.22 70.8341 Q1565.1 72.2924 1561.73 73.0216 Q1558.41 73.7508 1554.65 73.7508 Q1544.4 73.7508 1538.36 67.3098 Q1532.33 60.8689 1532.33 49.9314 Q1532.33 38.832 1538.4 32.472 Q1544.52 26.1121 1555.13 26.1121 Q1558.58 26.1121 1561.86 26.8413 Q1565.14 27.5299 1568.22 28.9478 Z" fill="#000000" fill-rule="nonzero" fill-opacity="1" /><path clip-path="url(#clip480)" d="M1588.55 14.324 L1588.55 27.2059 L1603.9 27.2059 L1603.9 32.9987 L1588.55 32.9987 L1588.55 57.6282 Q1588.55 63.1779 1590.05 64.7578 Q1591.59 66.3376 1596.25 66.3376 L1603.9 66.3376 L1603.9 72.576 L1596.25 72.576 Q1587.62 72.576 1584.34 69.3758 Q1581.06 66.1351 1581.06 57.6282 L1581.06 32.9987 L1575.59 32.9987 L1575.59 27.2059 L1581.06 27.2059 L1581.06 14.324 L1588.55 14.324 Z" fill="#000000" fill-rule="nonzero" fill-opacity="1" /><path clip-path="url(#clip480)" d="M1613.71 27.2059 L1621.16 27.2059 L1621.16 72.576 L1613.71 72.576 L1613.71 27.2059 M1613.71 9.54393 L1621.16 9.54393 L1621.16 18.9825 L1613.71 18.9825 L1613.71 9.54393 Z" fill="#000000" fill-rule="nonzero" fill-opacity="1" /><path clip-path="url(#clip480)" d="M1654.34 32.4315 Q1648.34 32.4315 1644.86 37.1306 Q1641.38 41.7891 1641.38 49.9314 Q1641.38 58.0738 1644.82 62.7728 Q1648.3 67.4314 1654.34 67.4314 Q1660.29 67.4314 1663.78 62.7323 Q1667.26 58.0333 1667.26 49.9314 Q1667.26 41.8701 1663.78 37.1711 Q1660.29 32.4315 1654.34 32.4315 M1654.34 26.1121 Q1664.06 26.1121 1669.61 32.4315 Q1675.16 38.7509 1675.16 49.9314 Q1675.16 61.0714 1669.61 67.4314 Q1664.06 73.7508 1654.34 73.7508 Q1644.58 73.7508 1639.03 67.4314 Q1633.52 61.0714 1633.52 49.9314 Q1633.52 38.7509 1639.03 32.4315 Q1644.58 26.1121 1654.34 26.1121 Z" fill="#000000" fill-rule="nonzero" fill-opacity="1" /><path clip-path="url(#clip480)" d="M1725.23 45.1919 L1725.23 72.576 L1717.78 72.576 L1717.78 45.4349 Q1717.78 38.994 1715.26 35.7938 Q1712.75 32.5936 1707.73 32.5936 Q1701.69 32.5936 1698.21 36.4419 Q1694.73 40.2903 1694.73 46.9338 L1694.73 72.576 L1687.23 72.576 L1687.23 27.2059 L1694.73 27.2059 L1694.73 34.2544 Q1697.4 30.163 1701.01 28.1376 Q1704.65 26.1121 1709.39 26.1121 Q1717.21 26.1121 1721.22 30.9732 Q1725.23 35.7938 1725.23 45.1919 Z" fill="#000000" fill-rule="nonzero" fill-opacity="1" /><path clip-path="url(#clip482)" d="M363.254 1064.48 L363.254 1486.45 L898.599 1486.45 L898.599 1064.48 L363.254 1064.48 L363.254 1064.48  Z" fill="#009af9" fill-rule="evenodd" fill-opacity="1"/>
<polyline clip-path="url(#clip482)" style="stroke:#000000; stroke-linecap:round; stroke-linejoin:round; stroke-width:4; stroke-opacity:1; fill:none" points="363.254,1064.48 363.254,1486.45 898.599,1486.45 898.599,1064.48 363.254,1064.48 "/>
<path clip-path="url(#clip482)" d="M1032.43 885.168 L1032.43 1486.45 L1567.78 1486.45 L1567.78 885.168 L1032.43 885.168 L1032.43 885.168  Z" fill="#009af9" fill-rule="evenodd" fill-opacity="1"/>
<polyline clip-path="url(#clip482)" style="stroke:#000000; stroke-linecap:round; stroke-linejoin:round; stroke-width:4; stroke-opacity:1; fill:none" points="1032.43,885.168 1032.43,1486.45 1567.78,1486.45 1567.78,885.168 1032.43,885.168 "/>
<path clip-path="url(#clip482)" d="M1701.62 123.472 L1701.62 1486.45 L2236.96 1486.45 L2236.96 123.472 L1701.62 123.472 L1701.62 123.472  Z" fill="#009af9" fill-rule="evenodd" fill-opacity="1"/>
<polyline clip-path="url(#clip482)" style="stroke:#000000; stroke-linecap:round; stroke-linejoin:round; stroke-width:4; stroke-opacity:1; fill:none" points="1701.62,123.472 1701.62,1486.45 2236.96,1486.45 2236.96,123.472 1701.62,123.472 "/>
<circle clip-path="url(#clip482)" style="fill:#009af9; stroke:none; fill-opacity:0" cx="630.926" cy="1064.48" r="2"/>
<circle clip-path="url(#clip482)" style="fill:#009af9; stroke:none; fill-opacity:0" cx="1300.11" cy="885.168" r="2"/>
<circle clip-path="url(#clip482)" style="fill:#009af9; stroke:none; fill-opacity:0" cx="1969.29" cy="123.472" r="2"/>
</svg>
