<?xml version="1.0" encoding="utf-8"?>
<svg xmlns="http://www.w3.org/2000/svg" xmlns:xlink="http://www.w3.org/1999/xlink" width="600" height="400" viewBox="0 0 2400 1600">
<defs>
  <clipPath id="clip390">
    <rect x="0" y="0" width="2400" height="1600"/>
  </clipPath>
</defs>
<path clip-path="url(#clip390)" d="M0 1600 L2400 1600 L2400 0 L0 0  Z" fill="#ffffff" fill-rule="evenodd" fill-opacity="1"/>
<defs>
  <clipPath id="clip391">
    <rect x="480" y="0" width="1681" height="1600"/>
  </clipPath>
</defs>
<path clip-path="url(#clip390)" d="M175.445 1486.45 L2352.76 1486.45 L2352.76 123.472 L175.445 123.472  Z" fill="#ffffff" fill-rule="evenodd" fill-opacity="1"/>
<defs>
  <clipPath id="clip392">
    <rect x="175" y="123" width="2178" height="1364"/>
  </clipPath>
</defs>
<polyline clip-path="url(#clip392)" style="stroke:#000000; stroke-linecap:round; stroke-linejoin:round; stroke-width:2; stroke-opacity:0.1; fill:none" points="572.03,1486.45 572.03,123.472 "/>
<polyline clip-path="url(#clip392)" style="stroke:#000000; stroke-linecap:round; stroke-linejoin:round; stroke-width:2; stroke-opacity:0.1; fill:none" points="1264.1,1486.45 1264.1,123.472 "/>
<polyline clip-path="url(#clip392)" style="stroke:#000000; stroke-linecap:round; stroke-linejoin:round; stroke-width:2; stroke-opacity:0.1; fill:none" points="1956.17,1486.45 1956.17,123.472 "/>
<polyline clip-path="url(#clip392)" style="stroke:#000000; stroke-linecap:round; stroke-linejoin:round; stroke-width:2; stroke-opacity:0.1; fill:none" points="175.445,1486.45 2352.76,1486.45 "/>
<polyline clip-path="url(#clip392)" style="stroke:#000000; stroke-linecap:round; stroke-linejoin:round; stroke-width:2; stroke-opacity:0.1; fill:none" points="175.445,1156.19 2352.76,1156.19 "/>
<polyline clip-path="url(#clip392)" style="stroke:#000000; stroke-linecap:round; stroke-linejoin:round; stroke-width:2; stroke-opacity:0.1; fill:none" points="175.445,825.929 2352.76,825.929 "/>
<polyline clip-path="url(#clip392)" style="stroke:#000000; stroke-linecap:round; stroke-linejoin:round; stroke-width:2; stroke-opacity:0.1; fill:none" points="175.445,495.67 2352.76,495.67 "/>
<polyline clip-path="url(#clip392)" style="stroke:#000000; stroke-linecap:round; stroke-linejoin:round; stroke-width:2; stroke-opacity:0.1; fill:none" points="175.445,165.41 2352.76,165.41 "/>
<polyline clip-path="url(#clip390)" style="stroke:#000000; stroke-linecap:round; stroke-linejoin:round; stroke-width:4; stroke-opacity:1; fill:none" points="175.445,1486.45 2352.76,1486.45 "/>
<polyline clip-path="url(#clip390)" style="stroke:#000000; stroke-linecap:round; stroke-linejoin:round; stroke-width:4; stroke-opacity:1; fill:none" points="572.03,1486.45 572.03,1467.55 "/>
<polyline clip-path="url(#clip390)" style="stroke:#000000; stroke-linecap:round; stroke-linejoin:round; stroke-width:4; stroke-opacity:1; fill:none" points="1264.1,1486.45 1264.1,1467.55 "/>
<polyline clip-path="url(#clip390)" style="stroke:#000000; stroke-linecap:round; stroke-linejoin:round; stroke-width:4; stroke-opacity:1; fill:none" points="1956.17,1486.45 1956.17,1467.55 "/>
<path clip-path="url(#clip390)" d="M494.981 1526.9 Q494.264 1526.49 493.407 1526.3 Q492.574 1526.09 491.555 1526.09 Q487.944 1526.09 486 1528.45 Q484.079 1530.79 484.079 1535.19 L484.079 1548.85 L479.796 1548.85 L479.796 1522.92 L484.079 1522.92 L484.079 1526.95 Q485.421 1524.59 487.574 1523.45 Q489.727 1522.3 492.805 1522.3 Q493.245 1522.3 493.778 1522.37 Q494.31 1522.41 494.958 1522.53 L494.981 1526.9 Z" fill="#000000" fill-rule="nonzero" fill-opacity="1" /><path clip-path="url(#clip390)" d="M520.583 1534.82 L520.583 1536.9 L501 1536.9 Q501.278 1541.3 503.639 1543.62 Q506.023 1545.91 510.259 1545.91 Q512.713 1545.91 515.004 1545.31 Q517.319 1544.7 519.588 1543.5 L519.588 1547.53 Q517.296 1548.5 514.889 1549.01 Q512.481 1549.52 510.004 1549.52 Q503.801 1549.52 500.167 1545.91 Q496.555 1542.3 496.555 1536.14 Q496.555 1529.77 499.981 1526.05 Q503.43 1522.3 509.264 1522.3 Q514.495 1522.3 517.528 1525.68 Q520.583 1529.03 520.583 1534.82 M516.324 1533.57 Q516.278 1530.07 514.356 1527.99 Q512.458 1525.91 509.31 1525.91 Q505.745 1525.91 503.592 1527.92 Q501.463 1529.94 501.139 1533.59 L516.324 1533.57 Z" fill="#000000" fill-rule="nonzero" fill-opacity="1" /><path clip-path="url(#clip390)" d="M544.634 1526.86 L544.634 1512.83 L548.893 1512.83 L548.893 1548.85 L544.634 1548.85 L544.634 1544.96 Q543.291 1547.27 541.231 1548.41 Q539.194 1549.52 536.324 1549.52 Q531.625 1549.52 528.662 1545.77 Q525.722 1542.02 525.722 1535.91 Q525.722 1529.8 528.662 1526.05 Q531.625 1522.3 536.324 1522.3 Q539.194 1522.3 541.231 1523.43 Q543.291 1524.54 544.634 1526.86 M530.12 1535.91 Q530.12 1540.61 532.041 1543.29 Q533.986 1545.95 537.365 1545.95 Q540.745 1545.95 542.689 1543.29 Q544.634 1540.61 544.634 1535.91 Q544.634 1531.21 542.689 1528.55 Q540.745 1525.86 537.365 1525.86 Q533.986 1525.86 532.041 1528.55 Q530.12 1531.21 530.12 1535.91 Z" fill="#000000" fill-rule="nonzero" fill-opacity="1" /><path clip-path="url(#clip390)" d="M557.226 1538.62 L557.226 1522.92 L561.486 1522.92 L561.486 1538.45 Q561.486 1542.13 562.921 1543.99 Q564.356 1545.82 567.226 1545.82 Q570.675 1545.82 572.666 1543.62 Q574.68 1541.42 574.68 1537.62 L574.68 1522.92 L578.939 1522.92 L578.939 1548.85 L574.68 1548.85 L574.68 1544.87 Q573.129 1547.23 571.069 1548.38 Q569.032 1549.52 566.324 1549.52 Q561.856 1549.52 559.541 1546.74 Q557.226 1543.96 557.226 1538.62 M567.944 1522.3 L567.944 1522.3 Z" fill="#000000" fill-rule="nonzero" fill-opacity="1" /><path clip-path="url(#clip390)" d="M606.37 1523.92 L606.37 1527.9 Q604.564 1526.9 602.735 1526.42 Q600.93 1525.91 599.078 1525.91 Q594.935 1525.91 592.643 1528.55 Q590.351 1531.16 590.351 1535.91 Q590.351 1540.65 592.643 1543.29 Q594.935 1545.91 599.078 1545.91 Q600.93 1545.91 602.735 1545.42 Q604.564 1544.91 606.37 1543.92 L606.37 1547.85 Q604.587 1548.69 602.666 1549.1 Q600.768 1549.52 598.615 1549.52 Q592.759 1549.52 589.31 1545.84 Q585.861 1542.16 585.861 1535.91 Q585.861 1529.57 589.333 1525.93 Q592.828 1522.3 598.893 1522.3 Q600.86 1522.3 602.735 1522.71 Q604.61 1523.11 606.37 1523.92 Z" fill="#000000" fill-rule="nonzero" fill-opacity="1" /><path clip-path="url(#clip390)" d="M635.953 1534.82 L635.953 1536.9 L616.37 1536.9 Q616.647 1541.3 619.008 1543.62 Q621.393 1545.91 625.629 1545.91 Q628.083 1545.91 630.374 1545.31 Q632.689 1544.7 634.957 1543.5 L634.957 1547.53 Q632.666 1548.5 630.258 1549.01 Q627.851 1549.52 625.374 1549.52 Q619.171 1549.52 615.536 1545.91 Q611.925 1542.3 611.925 1536.14 Q611.925 1529.77 615.351 1526.05 Q618.8 1522.3 624.633 1522.3 Q629.865 1522.3 632.897 1525.68 Q635.953 1529.03 635.953 1534.82 M631.694 1533.57 Q631.647 1530.07 629.726 1527.99 Q627.828 1525.91 624.68 1525.91 Q621.115 1525.91 618.962 1527.92 Q616.833 1529.94 616.508 1533.59 L631.694 1533.57 Z" fill="#000000" fill-rule="nonzero" fill-opacity="1" /><path clip-path="url(#clip390)" d="M660.004 1526.86 L660.004 1512.83 L664.263 1512.83 L664.263 1548.85 L660.004 1548.85 L660.004 1544.96 Q658.661 1547.27 656.601 1548.41 Q654.564 1549.52 651.693 1549.52 Q646.994 1549.52 644.031 1545.77 Q641.092 1542.02 641.092 1535.91 Q641.092 1529.8 644.031 1526.05 Q646.994 1522.3 651.693 1522.3 Q654.564 1522.3 656.601 1523.43 Q658.661 1524.54 660.004 1526.86 M645.49 1535.91 Q645.49 1540.61 647.411 1543.29 Q649.356 1545.95 652.735 1545.95 Q656.115 1545.95 658.059 1543.29 Q660.004 1540.61 660.004 1535.91 Q660.004 1531.21 658.059 1528.55 Q656.115 1525.86 652.735 1525.86 Q649.356 1525.86 647.411 1528.55 Q645.49 1531.21 645.49 1535.91 Z" fill="#000000" fill-rule="nonzero" fill-opacity="1" /><path clip-path="url(#clip390)" d="M1135.94 1538.62 L1135.94 1522.92 L1140.2 1522.92 L1140.2 1538.45 Q1140.2 1542.13 1141.64 1543.99 Q1143.07 1545.82 1145.94 1545.82 Q1149.39 1545.82 1151.38 1543.62 Q1153.4 1541.42 1153.4 1537.62 L1153.4 1522.92 L1157.65 1522.92 L1157.65 1548.85 L1153.4 1548.85 L1153.4 1544.87 Q1151.84 1547.23 1149.78 1548.38 Q1147.75 1549.52 1145.04 1549.52 Q1140.57 1549.52 1138.26 1546.74 Q1135.94 1543.96 1135.94 1538.62 M1146.66 1522.3 L1146.66 1522.3 Z" fill="#000000" fill-rule="nonzero" fill-opacity="1" /><path clip-path="url(#clip390)" d="M1187.98 1533.2 L1187.98 1548.85 L1183.72 1548.85 L1183.72 1533.34 Q1183.72 1529.66 1182.28 1527.83 Q1180.85 1526 1177.98 1526 Q1174.53 1526 1172.54 1528.2 Q1170.55 1530.4 1170.55 1534.2 L1170.55 1548.85 L1166.27 1548.85 L1166.27 1522.92 L1170.55 1522.92 L1170.55 1526.95 Q1172.08 1524.61 1174.14 1523.45 Q1176.22 1522.3 1178.93 1522.3 Q1183.39 1522.3 1185.69 1525.07 Q1187.98 1527.83 1187.98 1533.2 Z" fill="#000000" fill-rule="nonzero" fill-opacity="1" /><path clip-path="url(#clip390)" d="M1215.13 1523.92 L1215.13 1527.9 Q1213.33 1526.9 1211.5 1526.42 Q1209.69 1525.91 1207.84 1525.91 Q1203.7 1525.91 1201.4 1528.55 Q1199.11 1531.16 1199.11 1535.91 Q1199.11 1540.65 1201.4 1543.29 Q1203.7 1545.91 1207.84 1545.91 Q1209.69 1545.91 1211.5 1545.42 Q1213.33 1544.91 1215.13 1543.92 L1215.13 1547.85 Q1213.35 1548.69 1211.43 1549.1 Q1209.53 1549.52 1207.38 1549.52 Q1201.52 1549.52 1198.07 1545.84 Q1194.62 1542.16 1194.62 1535.91 Q1194.62 1529.57 1198.09 1525.93 Q1201.59 1522.3 1207.65 1522.3 Q1209.62 1522.3 1211.5 1522.71 Q1213.37 1523.11 1215.13 1523.92 Z" fill="#000000" fill-rule="nonzero" fill-opacity="1" /><path clip-path="url(#clip390)" d="M1244.09 1533.2 L1244.09 1548.85 L1239.83 1548.85 L1239.83 1533.34 Q1239.83 1529.66 1238.39 1527.83 Q1236.96 1526 1234.09 1526 Q1230.64 1526 1228.65 1528.2 Q1226.66 1530.4 1226.66 1534.2 L1226.66 1548.85 L1222.38 1548.85 L1222.38 1512.83 L1226.66 1512.83 L1226.66 1526.95 Q1228.19 1524.61 1230.25 1523.45 Q1232.33 1522.3 1235.04 1522.3 Q1239.51 1522.3 1241.8 1525.07 Q1244.09 1527.83 1244.09 1533.2 Z" fill="#000000" fill-rule="nonzero" fill-opacity="1" /><path clip-path="url(#clip390)" d="M1264.37 1535.82 Q1259.2 1535.82 1257.21 1537 Q1255.22 1538.18 1255.22 1541.02 Q1255.22 1543.29 1256.7 1544.63 Q1258.21 1545.95 1260.78 1545.95 Q1264.32 1545.95 1266.45 1543.45 Q1268.6 1540.93 1268.6 1536.76 L1268.6 1535.82 L1264.37 1535.82 M1272.86 1534.06 L1272.86 1548.85 L1268.6 1548.85 L1268.6 1544.91 Q1267.14 1547.27 1264.97 1548.41 Q1262.79 1549.52 1259.64 1549.52 Q1255.66 1549.52 1253.3 1547.3 Q1250.96 1545.05 1250.96 1541.3 Q1250.96 1536.93 1253.88 1534.7 Q1256.82 1532.48 1262.63 1532.48 L1268.6 1532.48 L1268.6 1532.07 Q1268.6 1529.13 1266.66 1527.53 Q1264.74 1525.91 1261.24 1525.91 Q1259.02 1525.91 1256.91 1526.44 Q1254.81 1526.97 1252.86 1528.04 L1252.86 1524.1 Q1255.2 1523.2 1257.4 1522.76 Q1259.6 1522.3 1261.68 1522.3 Q1267.31 1522.3 1270.08 1525.21 Q1272.86 1528.13 1272.86 1534.06 Z" fill="#000000" fill-rule="nonzero" fill-opacity="1" /><path clip-path="url(#clip390)" d="M1303.19 1533.2 L1303.19 1548.85 L1298.93 1548.85 L1298.93 1533.34 Q1298.93 1529.66 1297.49 1527.83 Q1296.06 1526 1293.19 1526 Q1289.74 1526 1287.75 1528.2 Q1285.76 1530.4 1285.76 1534.2 L1285.76 1548.85 L1281.47 1548.85 L1281.47 1522.92 L1285.76 1522.92 L1285.76 1526.95 Q1287.28 1524.61 1289.34 1523.45 Q1291.43 1522.3 1294.14 1522.3 Q1298.6 1522.3 1300.89 1525.07 Q1303.19 1527.83 1303.19 1533.2 Z" fill="#000000" fill-rule="nonzero" fill-opacity="1" /><path clip-path="url(#clip390)" d="M1328.74 1535.58 Q1328.74 1530.95 1326.82 1528.41 Q1324.92 1525.86 1321.47 1525.86 Q1318.05 1525.86 1316.13 1528.41 Q1314.23 1530.95 1314.23 1535.58 Q1314.23 1540.19 1316.13 1542.74 Q1318.05 1545.28 1321.47 1545.28 Q1324.92 1545.28 1326.82 1542.74 Q1328.74 1540.19 1328.74 1535.58 M1333 1545.63 Q1333 1552.25 1330.06 1555.47 Q1327.12 1558.71 1321.06 1558.71 Q1318.81 1558.71 1316.82 1558.36 Q1314.83 1558.04 1312.95 1557.34 L1312.95 1553.2 Q1314.83 1554.22 1316.66 1554.7 Q1318.49 1555.19 1320.38 1555.19 Q1324.57 1555.19 1326.66 1552.99 Q1328.74 1550.82 1328.74 1546.39 L1328.74 1544.29 Q1327.42 1546.58 1325.36 1547.71 Q1323.3 1548.85 1320.43 1548.85 Q1315.66 1548.85 1312.75 1545.21 Q1309.83 1541.58 1309.83 1535.58 Q1309.83 1529.57 1312.75 1525.93 Q1315.66 1522.3 1320.43 1522.3 Q1323.3 1522.3 1325.36 1523.43 Q1327.42 1524.57 1328.74 1526.86 L1328.74 1522.92 L1333 1522.92 L1333 1545.63 Z" fill="#000000" fill-rule="nonzero" fill-opacity="1" /><path clip-path="url(#clip390)" d="M1363.95 1534.82 L1363.95 1536.9 L1344.37 1536.9 Q1344.64 1541.3 1347.01 1543.62 Q1349.39 1545.91 1353.63 1545.91 Q1356.08 1545.91 1358.37 1545.31 Q1360.69 1544.7 1362.95 1543.5 L1362.95 1547.53 Q1360.66 1548.5 1358.26 1549.01 Q1355.85 1549.52 1353.37 1549.52 Q1347.17 1549.52 1343.53 1545.91 Q1339.92 1542.3 1339.92 1536.14 Q1339.92 1529.77 1343.35 1526.05 Q1346.8 1522.3 1352.63 1522.3 Q1357.86 1522.3 1360.89 1525.68 Q1363.95 1529.03 1363.95 1534.82 M1359.69 1533.57 Q1359.64 1530.07 1357.72 1527.99 Q1355.82 1525.91 1352.68 1525.91 Q1349.11 1525.91 1346.96 1527.92 Q1344.83 1529.94 1344.51 1533.59 L1359.69 1533.57 Z" fill="#000000" fill-rule="nonzero" fill-opacity="1" /><path clip-path="url(#clip390)" d="M1388 1526.86 L1388 1512.83 L1392.26 1512.83 L1392.26 1548.85 L1388 1548.85 L1388 1544.96 Q1386.66 1547.27 1384.6 1548.41 Q1382.56 1549.52 1379.69 1549.52 Q1374.99 1549.52 1372.03 1545.77 Q1369.09 1542.02 1369.09 1535.91 Q1369.09 1529.8 1372.03 1526.05 Q1374.99 1522.3 1379.69 1522.3 Q1382.56 1522.3 1384.6 1523.43 Q1386.66 1524.54 1388 1526.86 M1373.49 1535.91 Q1373.49 1540.61 1375.41 1543.29 Q1377.35 1545.95 1380.73 1545.95 Q1384.11 1545.95 1386.06 1543.29 Q1388 1540.61 1388 1535.91 Q1388 1531.21 1386.06 1528.55 Q1384.11 1525.86 1380.73 1525.86 Q1377.35 1525.86 1375.41 1528.55 Q1373.49 1531.21 1373.49 1535.91 Z" fill="#000000" fill-rule="nonzero" fill-opacity="1" /><path clip-path="url(#clip390)" d="M1845.61 1522.92 L1849.86 1522.92 L1849.86 1548.85 L1845.61 1548.85 L1845.61 1522.92 M1845.61 1512.83 L1849.86 1512.83 L1849.86 1518.22 L1845.61 1518.22 L1845.61 1512.83 Z" fill="#000000" fill-rule="nonzero" fill-opacity="1" /><path clip-path="url(#clip390)" d="M1880.33 1533.2 L1880.33 1548.85 L1876.07 1548.85 L1876.07 1533.34 Q1876.07 1529.66 1874.63 1527.83 Q1873.2 1526 1870.33 1526 Q1866.88 1526 1864.89 1528.2 Q1862.9 1530.4 1862.9 1534.2 L1862.9 1548.85 L1858.61 1548.85 L1858.61 1522.92 L1862.9 1522.92 L1862.9 1526.95 Q1864.42 1524.61 1866.48 1523.45 Q1868.57 1522.3 1871.28 1522.3 Q1875.74 1522.3 1878.04 1525.07 Q1880.33 1527.83 1880.33 1533.2 Z" fill="#000000" fill-rule="nonzero" fill-opacity="1" /><path clip-path="url(#clip390)" d="M1907.48 1523.92 L1907.48 1527.9 Q1905.67 1526.9 1903.85 1526.42 Q1902.04 1525.91 1900.19 1525.91 Q1896.04 1525.91 1893.75 1528.55 Q1891.46 1531.16 1891.46 1535.91 Q1891.46 1540.65 1893.75 1543.29 Q1896.04 1545.91 1900.19 1545.91 Q1902.04 1545.91 1903.85 1545.42 Q1905.67 1544.91 1907.48 1543.92 L1907.48 1547.85 Q1905.7 1548.69 1903.78 1549.1 Q1901.88 1549.52 1899.73 1549.52 Q1893.87 1549.52 1890.42 1545.84 Q1886.97 1542.16 1886.97 1535.91 Q1886.97 1529.57 1890.44 1525.93 Q1893.94 1522.3 1900 1522.3 Q1901.97 1522.3 1903.85 1522.71 Q1905.72 1523.11 1907.48 1523.92 Z" fill="#000000" fill-rule="nonzero" fill-opacity="1" /><path clip-path="url(#clip390)" d="M1929.91 1526.9 Q1929.19 1526.49 1928.34 1526.3 Q1927.5 1526.09 1926.48 1526.09 Q1922.87 1526.09 1920.93 1528.45 Q1919.01 1530.79 1919.01 1535.19 L1919.01 1548.85 L1914.73 1548.85 L1914.73 1522.92 L1919.01 1522.92 L1919.01 1526.95 Q1920.35 1524.59 1922.5 1523.45 Q1924.66 1522.3 1927.73 1522.3 Q1928.17 1522.3 1928.71 1522.37 Q1929.24 1522.41 1929.89 1522.53 L1929.91 1526.9 Z" fill="#000000" fill-rule="nonzero" fill-opacity="1" /><path clip-path="url(#clip390)" d="M1955.51 1534.82 L1955.51 1536.9 L1935.93 1536.9 Q1936.21 1541.3 1938.57 1543.62 Q1940.95 1545.91 1945.19 1545.91 Q1947.64 1545.91 1949.93 1545.31 Q1952.25 1544.7 1954.52 1543.5 L1954.52 1547.53 Q1952.22 1548.5 1949.82 1549.01 Q1947.41 1549.52 1944.93 1549.52 Q1938.73 1549.52 1935.1 1545.91 Q1931.48 1542.3 1931.48 1536.14 Q1931.48 1529.77 1934.91 1526.05 Q1938.36 1522.3 1944.19 1522.3 Q1949.42 1522.3 1952.46 1525.68 Q1955.51 1529.03 1955.51 1534.82 M1951.25 1533.57 Q1951.21 1530.07 1949.29 1527.99 Q1947.39 1525.91 1944.24 1525.91 Q1940.67 1525.91 1938.52 1527.92 Q1936.39 1529.94 1936.07 1533.59 L1951.25 1533.57 Z" fill="#000000" fill-rule="nonzero" fill-opacity="1" /><path clip-path="url(#clip390)" d="M1974.28 1535.82 Q1969.12 1535.82 1967.13 1537 Q1965.14 1538.18 1965.14 1541.02 Q1965.14 1543.29 1966.62 1544.63 Q1968.13 1545.95 1970.7 1545.95 Q1974.24 1545.95 1976.37 1543.45 Q1978.52 1540.93 1978.52 1536.76 L1978.52 1535.82 L1974.28 1535.82 M1982.78 1534.06 L1982.78 1548.85 L1978.52 1548.85 L1978.52 1544.91 Q1977.06 1547.27 1974.89 1548.41 Q1972.71 1549.52 1969.56 1549.52 Q1965.58 1549.52 1963.22 1547.3 Q1960.88 1545.05 1960.88 1541.3 Q1960.88 1536.93 1963.8 1534.7 Q1966.74 1532.48 1972.55 1532.48 L1978.52 1532.48 L1978.52 1532.07 Q1978.52 1529.13 1976.58 1527.53 Q1974.66 1525.91 1971.16 1525.91 Q1968.94 1525.91 1966.83 1526.44 Q1964.72 1526.97 1962.78 1528.04 L1962.78 1524.1 Q1965.12 1523.2 1967.32 1522.76 Q1969.52 1522.3 1971.6 1522.3 Q1977.22 1522.3 1980 1525.21 Q1982.78 1528.13 1982.78 1534.06 Z" fill="#000000" fill-rule="nonzero" fill-opacity="1" /><path clip-path="url(#clip390)" d="M2008.08 1523.69 L2008.08 1527.71 Q2006.28 1526.79 2004.33 1526.32 Q2002.39 1525.86 2000.3 1525.86 Q1997.13 1525.86 1995.53 1526.83 Q1993.96 1527.81 1993.96 1529.75 Q1993.96 1531.23 1995.09 1532.09 Q1996.23 1532.92 1999.66 1533.69 L2001.11 1534.01 Q2005.65 1534.98 2007.55 1536.76 Q2009.47 1538.52 2009.47 1541.7 Q2009.47 1545.31 2006.6 1547.41 Q2003.75 1549.52 1998.75 1549.52 Q1996.67 1549.52 1994.4 1549.1 Q1992.16 1548.71 1989.66 1547.9 L1989.66 1543.5 Q1992.02 1544.73 1994.31 1545.35 Q1996.6 1545.95 1998.84 1545.95 Q2001.85 1545.95 2003.47 1544.94 Q2005.09 1543.89 2005.09 1542.02 Q2005.09 1540.28 2003.91 1539.36 Q2002.76 1538.43 1998.8 1537.57 L1997.32 1537.23 Q1993.36 1536.39 1991.6 1534.68 Q1989.84 1532.95 1989.84 1529.94 Q1989.84 1526.28 1992.43 1524.29 Q1995.03 1522.3 1999.79 1522.3 Q2002.16 1522.3 2004.24 1522.64 Q2006.32 1522.99 2008.08 1523.69 Z" fill="#000000" fill-rule="nonzero" fill-opacity="1" /><path clip-path="url(#clip390)" d="M2038.43 1534.82 L2038.43 1536.9 L2018.84 1536.9 Q2019.12 1541.3 2021.48 1543.62 Q2023.87 1545.91 2028.1 1545.91 Q2030.56 1545.91 2032.85 1545.31 Q2035.16 1544.7 2037.43 1543.5 L2037.43 1547.53 Q2035.14 1548.5 2032.73 1549.01 Q2030.33 1549.52 2027.85 1549.52 Q2021.65 1549.52 2018.01 1545.91 Q2014.4 1542.3 2014.4 1536.14 Q2014.4 1529.77 2017.83 1526.05 Q2021.28 1522.3 2027.11 1522.3 Q2032.34 1522.3 2035.37 1525.68 Q2038.43 1529.03 2038.43 1534.82 M2034.17 1533.57 Q2034.12 1530.07 2032.2 1527.99 Q2030.3 1525.91 2027.15 1525.91 Q2023.59 1525.91 2021.44 1527.92 Q2019.31 1529.94 2018.98 1533.59 L2034.17 1533.57 Z" fill="#000000" fill-rule="nonzero" fill-opacity="1" /><path clip-path="url(#clip390)" d="M2062.48 1526.86 L2062.48 1512.83 L2066.74 1512.83 L2066.74 1548.85 L2062.48 1548.85 L2062.48 1544.96 Q2061.14 1547.27 2059.08 1548.41 Q2057.04 1549.52 2054.17 1549.52 Q2049.47 1549.52 2046.51 1545.77 Q2043.57 1542.02 2043.57 1535.91 Q2043.57 1529.8 2046.51 1526.05 Q2049.47 1522.3 2054.17 1522.3 Q2057.04 1522.3 2059.08 1523.43 Q2061.14 1524.54 2062.48 1526.86 M2047.97 1535.91 Q2047.97 1540.61 2049.89 1543.29 Q2051.83 1545.95 2055.21 1545.95 Q2058.59 1545.95 2060.53 1543.29 Q2062.48 1540.61 2062.48 1535.91 Q2062.48 1531.21 2060.53 1528.55 Q2058.59 1525.86 2055.21 1525.86 Q2051.83 1525.86 2049.89 1528.55 Q2047.97 1531.21 2047.97 1535.91 Z" fill="#000000" fill-rule="nonzero" fill-opacity="1" /><polyline clip-path="url(#clip390)" style="stroke:#000000; stroke-linecap:round; stroke-linejoin:round; stroke-width:4; stroke-opacity:1; fill:none" points="175.445,1486.45 175.445,123.472 "/>
<polyline clip-path="url(#clip390)" style="stroke:#000000; stroke-linecap:round; stroke-linejoin:round; stroke-width:4; stroke-opacity:1; fill:none" points="175.445,1486.45 194.343,1486.45 "/>
<polyline clip-path="url(#clip390)" style="stroke:#000000; stroke-linecap:round; stroke-linejoin:round; stroke-width:4; stroke-opacity:1; fill:none" points="175.445,1156.19 194.343,1156.19 "/>
<polyline clip-path="url(#clip390)" style="stroke:#000000; stroke-linecap:round; stroke-linejoin:round; stroke-width:4; stroke-opacity:1; fill:none" points="175.445,825.929 194.343,825.929 "/>
<polyline clip-path="url(#clip390)" style="stroke:#000000; stroke-linecap:round; stroke-linejoin:round; stroke-width:4; stroke-opacity:1; fill:none" points="175.445,495.67 194.343,495.67 "/>
<polyline clip-path="url(#clip390)" style="stroke:#000000; stroke-linecap:round; stroke-linejoin:round; stroke-width:4; stroke-opacity:1; fill:none" points="175.445,165.41 194.343,165.41 "/>
<path clip-path="url(#clip390)" d="M127.501 1472.25 Q123.89 1472.25 122.061 1475.81 Q120.255 1479.35 120.255 1486.48 Q120.255 1493.59 122.061 1497.15 Q123.89 1500.7 127.501 1500.7 Q131.135 1500.7 132.941 1497.15 Q134.769 1493.59 134.769 1486.48 Q134.769 1479.35 132.941 1475.81 Q131.135 1472.25 127.501 1472.25 M127.501 1468.54 Q133.311 1468.54 136.367 1473.15 Q139.445 1477.73 139.445 1486.48 Q139.445 1495.21 136.367 1499.82 Q133.311 1504.4 127.501 1504.4 Q121.691 1504.4 118.612 1499.82 Q115.556 1495.21 115.556 1486.48 Q115.556 1477.73 118.612 1473.15 Q121.691 1468.54 127.501 1468.54 Z" fill="#000000" fill-rule="nonzero" fill-opacity="1" /><path clip-path="url(#clip390)" d="M123.126 1169.53 L139.445 1169.53 L139.445 1173.47 L117.501 1173.47 L117.501 1169.53 Q120.163 1166.78 124.746 1162.15 Q129.353 1157.5 130.533 1156.15 Q132.779 1153.63 133.658 1151.89 Q134.561 1150.14 134.561 1148.45 Q134.561 1145.69 132.617 1143.95 Q130.695 1142.22 127.593 1142.22 Q125.394 1142.22 122.941 1142.98 Q120.51 1143.75 117.732 1145.3 L117.732 1140.58 Q120.556 1139.44 123.01 1138.86 Q125.464 1138.28 127.501 1138.28 Q132.871 1138.28 136.066 1140.97 Q139.26 1143.65 139.26 1148.14 Q139.26 1150.27 138.45 1152.2 Q137.663 1154.09 135.556 1156.69 Q134.978 1157.36 131.876 1160.58 Q128.774 1163.77 123.126 1169.53 Z" fill="#000000" fill-rule="nonzero" fill-opacity="1" /><path clip-path="url(#clip390)" d="M129.862 812.723 L118.056 831.172 L129.862 831.172 L129.862 812.723 M128.635 808.649 L134.515 808.649 L134.515 831.172 L139.445 831.172 L139.445 835.061 L134.515 835.061 L134.515 843.209 L129.862 843.209 L129.862 835.061 L114.26 835.061 L114.26 830.547 L128.635 808.649 Z" fill="#000000" fill-rule="nonzero" fill-opacity="1" /><path clip-path="url(#clip390)" d="M127.917 493.806 Q124.769 493.806 122.918 495.959 Q121.089 498.112 121.089 501.862 Q121.089 505.589 122.918 507.764 Q124.769 509.917 127.917 509.917 Q131.066 509.917 132.894 507.764 Q134.746 505.589 134.746 501.862 Q134.746 498.112 132.894 495.959 Q131.066 493.806 127.917 493.806 M137.2 479.154 L137.2 483.413 Q135.441 482.579 133.635 482.14 Q131.853 481.7 130.093 481.7 Q125.464 481.7 123.01 484.825 Q120.58 487.95 120.232 494.269 Q121.598 492.255 123.658 491.19 Q125.718 490.103 128.195 490.103 Q133.404 490.103 136.413 493.274 Q139.445 496.422 139.445 501.862 Q139.445 507.186 136.297 510.403 Q133.149 513.621 127.917 513.621 Q121.922 513.621 118.751 509.038 Q115.58 504.431 115.58 495.704 Q115.58 487.51 119.468 482.649 Q123.357 477.765 129.908 477.765 Q131.667 477.765 133.45 478.112 Q135.255 478.459 137.2 479.154 Z" fill="#000000" fill-rule="nonzero" fill-opacity="1" /><path clip-path="url(#clip390)" d="M127.593 166.278 Q124.26 166.278 122.339 168.061 Q120.441 169.843 120.441 172.968 Q120.441 176.093 122.339 177.875 Q124.26 179.658 127.593 179.658 Q130.927 179.658 132.848 177.875 Q134.769 176.07 134.769 172.968 Q134.769 169.843 132.848 168.061 Q130.95 166.278 127.593 166.278 M122.918 164.288 Q119.908 163.547 118.218 161.487 Q116.552 159.426 116.552 156.464 Q116.552 152.32 119.492 149.913 Q122.455 147.505 127.593 147.505 Q132.755 147.505 135.695 149.913 Q138.635 152.32 138.635 156.464 Q138.635 159.426 136.945 161.487 Q135.279 163.547 132.292 164.288 Q135.672 165.075 137.547 167.366 Q139.445 169.658 139.445 172.968 Q139.445 177.991 136.367 180.676 Q133.311 183.362 127.593 183.362 Q121.876 183.362 118.797 180.676 Q115.742 177.991 115.742 172.968 Q115.742 169.658 117.64 167.366 Q119.538 165.075 122.918 164.288 M121.205 156.903 Q121.205 159.589 122.871 161.093 Q124.561 162.598 127.593 162.598 Q130.603 162.598 132.292 161.093 Q134.005 159.589 134.005 156.903 Q134.005 154.218 132.292 152.714 Q130.603 151.209 127.593 151.209 Q124.561 151.209 122.871 152.714 Q121.205 154.218 121.205 156.903 Z" fill="#000000" fill-rule="nonzero" fill-opacity="1" /><path clip-path="url(#clip390)" d="M20.1444 860.819 L26.9239 860.819 Q23.9002 864.066 22.4043 867.758 Q20.9083 871.418 20.9083 875.556 Q20.9083 883.704 25.9054 888.032 Q30.8707 892.361 40.2919 892.361 Q49.6813 892.361 54.6784 888.032 Q59.6436 883.704 59.6436 875.556 Q59.6436 871.418 58.1477 867.758 Q56.6518 864.066 53.6281 860.819 L60.3439 860.819 Q62.6355 864.193 63.7814 867.98 Q64.9272 871.736 64.9272 875.938 Q64.9272 886.728 58.3387 892.934 Q51.7183 899.141 40.2919 899.141 Q28.8336 899.141 22.2451 892.934 Q15.6248 886.728 15.6248 875.938 Q15.6248 871.673 16.7706 867.917 Q17.8846 864.129 20.1444 860.819 Z" fill="#000000" fill-rule="nonzero" fill-opacity="1" /><path clip-path="url(#clip390)" d="M32.4621 837.33 Q32.4621 842.04 36.1542 844.777 Q39.8145 847.515 46.212 847.515 Q52.6095 847.515 56.3017 844.809 Q59.9619 842.072 59.9619 837.33 Q59.9619 832.651 56.2698 829.914 Q52.5777 827.176 46.212 827.176 Q39.8781 827.176 36.186 829.914 Q32.4621 832.651 32.4621 837.33 M27.4968 837.33 Q27.4968 829.691 32.4621 825.33 Q37.4273 820.97 46.212 820.97 Q54.9649 820.97 59.9619 825.33 Q64.9272 829.691 64.9272 837.33 Q64.9272 845 59.9619 849.361 Q54.9649 853.689 46.212 853.689 Q37.4273 853.689 32.4621 849.361 Q27.4968 845 27.4968 837.33 Z" fill="#000000" fill-rule="nonzero" fill-opacity="1" /><path clip-path="url(#clip390)" d="M49.9359 811.867 L28.3562 811.867 L28.3562 806.01 L49.7131 806.01 Q54.7739 806.01 57.3202 804.037 Q59.8346 802.064 59.8346 798.117 Q59.8346 793.374 56.8109 790.637 Q53.7872 787.868 48.5673 787.868 L28.3562 787.868 L28.3562 782.012 L64.0042 782.012 L64.0042 787.868 L58.5296 787.868 Q61.7762 790.001 63.3676 792.833 Q64.9272 795.634 64.9272 799.358 Q64.9272 805.501 61.1078 808.684 Q57.2883 811.867 49.9359 811.867 M27.4968 797.13 L27.4968 797.13 Z" fill="#000000" fill-rule="nonzero" fill-opacity="1" /><path clip-path="url(#clip390)" d="M42.4881 740.316 L64.0042 740.316 L64.0042 746.173 L42.679 746.173 Q37.6183 746.173 35.1038 748.146 Q32.5894 750.119 32.5894 754.066 Q32.5894 758.809 35.6131 761.546 Q38.6368 764.283 43.8567 764.283 L64.0042 764.283 L64.0042 770.171 L28.3562 770.171 L28.3562 764.283 L33.8944 764.283 Q30.6797 762.182 29.0883 759.35 Q27.4968 756.485 27.4968 752.761 Q27.4968 746.618 31.3163 743.467 Q35.1038 740.316 42.4881 740.316 Z" fill="#000000" fill-rule="nonzero" fill-opacity="1" /><path clip-path="url(#clip390)" d="M18.2347 722.842 L28.3562 722.842 L28.3562 710.779 L32.9077 710.779 L32.9077 722.842 L52.2594 722.842 Q56.6199 722.842 57.8613 721.665 Q59.1026 720.455 59.1026 716.795 L59.1026 710.779 L64.0042 710.779 L64.0042 716.795 Q64.0042 723.574 61.4897 726.153 Q58.9434 728.731 52.2594 728.731 L32.9077 728.731 L32.9077 733.028 L28.3562 733.028 L28.3562 728.731 L18.2347 728.731 L18.2347 722.842 Z" fill="#000000" fill-rule="nonzero" fill-opacity="1" /><path clip-path="url(#clip390)" d="M803.796 44.2197 Q806.429 45.1109 808.9 48.0275 Q811.412 50.9442 813.924 56.0483 L822.228 72.576 L813.437 72.576 L805.7 57.061 Q802.703 50.9847 799.867 48.9997 Q797.072 47.0148 792.211 47.0148 L783.299 47.0148 L783.299 72.576 L775.116 72.576 L775.116 12.096 L793.588 12.096 Q803.958 12.096 809.062 16.4305 Q814.167 20.7649 814.167 29.5149 Q814.167 35.2267 811.493 38.994 Q808.86 42.7613 803.796 44.2197 M783.299 18.8205 L783.299 40.2903 L793.588 40.2903 Q799.502 40.2903 802.5 37.5762 Q805.538 34.8216 805.538 29.5149 Q805.538 24.2082 802.5 21.5346 Q799.502 18.8205 793.588 18.8205 L783.299 18.8205 Z" fill="#000000" fill-rule="nonzero" fill-opacity="1" /><path clip-path="url(#clip390)" d="M867.517 48.0275 L867.517 51.6733 L833.246 51.6733 Q833.732 59.3701 837.864 63.421 Q842.037 67.4314 849.45 67.4314 Q853.744 67.4314 857.754 66.3781 Q861.805 65.3249 865.775 63.2184 L865.775 70.267 Q861.765 71.9684 857.552 72.8596 Q853.339 73.7508 849.004 73.7508 Q838.148 73.7508 831.788 67.4314 Q825.469 61.1119 825.469 50.3365 Q825.469 39.1965 831.464 32.6746 Q837.5 26.1121 847.708 26.1121 Q856.863 26.1121 862.17 32.0264 Q867.517 37.9003 867.517 48.0275 M860.063 45.84 Q859.982 39.7232 856.62 36.0774 Q853.298 32.4315 847.789 32.4315 Q841.551 32.4315 837.783 35.9558 Q834.057 39.4801 833.489 45.8805 L860.063 45.84 Z" fill="#000000" fill-rule="nonzero" fill-opacity="1" /><path clip-path="url(#clip390)" d="M915.075 35.9153 Q917.87 30.8922 921.759 28.5022 Q925.648 26.1121 930.914 26.1121 Q938.003 26.1121 941.851 31.0947 Q945.699 36.0368 945.699 45.1919 L945.699 72.576 L938.205 72.576 L938.205 45.4349 Q938.205 38.913 935.896 35.7533 Q933.587 32.5936 928.848 32.5936 Q923.055 32.5936 919.693 36.4419 Q916.33 40.2903 916.33 46.9338 L916.33 72.576 L908.836 72.576 L908.836 45.4349 Q908.836 38.8725 906.527 35.7533 Q904.218 32.5936 899.398 32.5936 Q893.686 32.5936 890.324 36.4824 Q886.961 40.3308 886.961 46.9338 L886.961 72.576 L879.467 72.576 L879.467 27.2059 L886.961 27.2059 L886.961 34.2544 Q889.513 30.082 893.078 28.0971 Q896.643 26.1121 901.545 26.1121 Q906.487 26.1121 909.93 28.6237 Q913.414 31.1352 915.075 35.9153 Z" fill="#000000" fill-rule="nonzero" fill-opacity="1" /><path clip-path="url(#clip390)" d="M978.147 32.4315 Q972.152 32.4315 968.668 37.1306 Q965.184 41.7891 965.184 49.9314 Q965.184 58.0738 968.628 62.7728 Q972.111 67.4314 978.147 67.4314 Q984.102 67.4314 987.586 62.7323 Q991.07 58.0333 991.07 49.9314 Q991.07 41.8701 987.586 37.1711 Q984.102 32.4315 978.147 32.4315 M978.147 26.1121 Q987.869 26.1121 993.419 32.4315 Q998.969 38.7509 998.969 49.9314 Q998.969 61.0714 993.419 67.4314 Q987.869 73.7508 978.147 73.7508 Q968.385 73.7508 962.835 67.4314 Q957.326 61.0714 957.326 49.9314 Q957.326 38.7509 962.835 32.4315 Q968.385 26.1121 978.147 26.1121 Z" fill="#000000" fill-rule="nonzero" fill-opacity="1" /><path clip-path="url(#clip390)" d="M1005.98 27.2059 L1013.88 27.2059 L1028.05 65.2844 L1042.23 27.2059 L1050.13 27.2059 L1033.12 72.576 L1022.99 72.576 L1005.98 27.2059 Z" fill="#000000" fill-rule="nonzero" fill-opacity="1" /><path clip-path="url(#clip390)" d="M1060.42 27.2059 L1067.87 27.2059 L1067.87 72.576 L1060.42 72.576 L1060.42 27.2059 M1060.42 9.54393 L1067.87 9.54393 L1067.87 18.9825 L1060.42 18.9825 L1060.42 9.54393 Z" fill="#000000" fill-rule="nonzero" fill-opacity="1" /><path clip-path="url(#clip390)" d="M1121.18 45.1919 L1121.18 72.576 L1113.73 72.576 L1113.73 45.4349 Q1113.73 38.994 1111.22 35.7938 Q1108.71 32.5936 1103.68 32.5936 Q1097.65 32.5936 1094.17 36.4419 Q1090.68 40.2903 1090.68 46.9338 L1090.68 72.576 L1083.19 72.576 L1083.19 27.2059 L1090.68 27.2059 L1090.68 34.2544 Q1093.35 30.163 1096.96 28.1376 Q1100.61 26.1121 1105.35 26.1121 Q1113.16 26.1121 1117.17 30.9732 Q1121.18 35.7938 1121.18 45.1919 Z" fill="#000000" fill-rule="nonzero" fill-opacity="1" /><path clip-path="url(#clip390)" d="M1165.91 49.3643 Q1165.91 41.2625 1162.54 36.8065 Q1159.22 32.3505 1153.19 32.3505 Q1147.19 32.3505 1143.83 36.8065 Q1140.51 41.2625 1140.51 49.3643 Q1140.51 57.4256 1143.83 61.8816 Q1147.19 66.3376 1153.19 66.3376 Q1159.22 66.3376 1162.54 61.8816 Q1165.91 57.4256 1165.91 49.3643 M1173.36 66.9452 Q1173.36 78.5308 1168.22 84.1616 Q1163.07 89.8329 1152.46 89.8329 Q1148.53 89.8329 1145.04 89.2252 Q1141.56 88.6581 1138.28 87.4428 L1138.28 80.1917 Q1141.56 81.9741 1144.76 82.8248 Q1147.96 83.6755 1151.28 83.6755 Q1158.62 83.6755 1162.26 79.8271 Q1165.91 76.0193 1165.91 68.282 L1165.91 64.5957 Q1163.6 68.6061 1159.99 70.5911 Q1156.39 72.576 1151.36 72.576 Q1143.02 72.576 1137.91 66.2161 Q1132.81 59.8562 1132.81 49.3643 Q1132.81 38.832 1137.91 32.472 Q1143.02 26.1121 1151.36 26.1121 Q1156.39 26.1121 1159.99 28.0971 Q1163.6 30.082 1165.91 34.0924 L1165.91 27.2059 L1173.36 27.2059 L1173.36 66.9452 Z" fill="#000000" fill-rule="nonzero" fill-opacity="1" /><path clip-path="url(#clip390)" d="M1247.73 28.9478 L1247.73 35.9153 Q1244.58 34.1734 1241.37 33.3227 Q1238.22 32.4315 1234.97 32.4315 Q1227.72 32.4315 1223.71 37.0496 Q1219.7 41.6271 1219.7 49.9314 Q1219.7 58.2358 1223.71 62.8538 Q1227.72 67.4314 1234.97 67.4314 Q1238.22 67.4314 1241.37 66.5807 Q1244.58 65.6895 1247.73 63.9476 L1247.73 70.8341 Q1244.62 72.2924 1241.25 73.0216 Q1237.93 73.7508 1234.16 73.7508 Q1223.92 73.7508 1217.88 67.3098 Q1211.84 60.8689 1211.84 49.9314 Q1211.84 38.832 1217.92 32.472 Q1224.04 26.1121 1234.65 26.1121 Q1238.09 26.1121 1241.37 26.8413 Q1244.66 27.5299 1247.73 28.9478 Z" fill="#000000" fill-rule="nonzero" fill-opacity="1" /><path clip-path="url(#clip390)" d="M1278.28 32.4315 Q1272.28 32.4315 1268.8 37.1306 Q1265.32 41.7891 1265.32 49.9314 Q1265.32 58.0738 1268.76 62.7728 Q1272.24 67.4314 1278.28 67.4314 Q1284.23 67.4314 1287.72 62.7323 Q1291.2 58.0333 1291.2 49.9314 Q1291.2 41.8701 1287.72 37.1711 Q1284.23 32.4315 1278.28 32.4315 M1278.28 26.1121 Q1288 26.1121 1293.55 32.4315 Q1299.1 38.7509 1299.1 49.9314 Q1299.1 61.0714 1293.55 67.4314 Q1288 73.7508 1278.28 73.7508 Q1268.52 73.7508 1262.97 67.4314 Q1257.46 61.0714 1257.46 49.9314 Q1257.46 38.7509 1262.97 32.4315 Q1268.52 26.1121 1278.28 26.1121 Z" fill="#000000" fill-rule="nonzero" fill-opacity="1" /><path clip-path="url(#clip390)" d="M1346.78 35.9153 Q1349.57 30.8922 1353.46 28.5022 Q1357.35 26.1121 1362.62 26.1121 Q1369.71 26.1121 1373.56 31.0947 Q1377.4 36.0368 1377.4 45.1919 L1377.4 72.576 L1369.91 72.576 L1369.91 45.4349 Q1369.91 38.913 1367.6 35.7533 Q1365.29 32.5936 1360.55 32.5936 Q1354.76 32.5936 1351.4 36.4419 Q1348.04 40.2903 1348.04 46.9338 L1348.04 72.576 L1340.54 72.576 L1340.54 45.4349 Q1340.54 38.8725 1338.23 35.7533 Q1335.92 32.5936 1331.1 32.5936 Q1325.39 32.5936 1322.03 36.4824 Q1318.67 40.3308 1318.67 46.9338 L1318.67 72.576 L1311.17 72.576 L1311.17 27.2059 L1318.67 27.2059 L1318.67 34.2544 Q1321.22 30.082 1324.78 28.0971 Q1328.35 26.1121 1333.25 26.1121 Q1338.19 26.1121 1341.63 28.6237 Q1345.12 31.1352 1346.78 35.9153 Z" fill="#000000" fill-rule="nonzero" fill-opacity="1" /><path clip-path="url(#clip390)" d="M1427.6 35.9153 Q1430.39 30.8922 1434.28 28.5022 Q1438.17 26.1121 1443.43 26.1121 Q1450.52 26.1121 1454.37 31.0947 Q1458.22 36.0368 1458.22 45.1919 L1458.22 72.576 L1450.73 72.576 L1450.73 45.4349 Q1450.73 38.913 1448.42 35.7533 Q1446.11 32.5936 1441.37 32.5936 Q1435.58 32.5936 1432.21 36.4419 Q1428.85 40.2903 1428.85 46.9338 L1428.85 72.576 L1421.36 72.576 L1421.36 45.4349 Q1421.36 38.8725 1419.05 35.7533 Q1416.74 32.5936 1411.92 32.5936 Q1406.21 32.5936 1402.84 36.4824 Q1399.48 40.3308 1399.48 46.9338 L1399.48 72.576 L1391.99 72.576 L1391.99 27.2059 L1399.48 27.2059 L1399.48 34.2544 Q1402.03 30.082 1405.6 28.0971 Q1409.16 26.1121 1414.07 26.1121 Q1419.01 26.1121 1422.45 28.6237 Q1425.93 31.1352 1427.6 35.9153 Z" fill="#000000" fill-rule="nonzero" fill-opacity="1" /><path clip-path="url(#clip390)" d="M1472.32 54.671 L1472.32 27.2059 L1479.77 27.2059 L1479.77 54.3874 Q1479.77 60.8284 1482.28 64.0691 Q1484.79 67.2693 1489.82 67.2693 Q1495.85 67.2693 1499.34 63.421 Q1502.86 59.5726 1502.86 52.9291 L1502.86 27.2059 L1510.31 27.2059 L1510.31 72.576 L1502.86 72.576 L1502.86 65.6084 Q1500.15 69.7404 1496.54 71.7658 Q1492.98 73.7508 1488.24 73.7508 Q1480.42 73.7508 1476.37 68.8897 Q1472.32 64.0286 1472.32 54.671 M1491.07 26.1121 L1491.07 26.1121 Z" fill="#000000" fill-rule="nonzero" fill-opacity="1" /><path clip-path="url(#clip390)" d="M1533.04 14.324 L1533.04 27.2059 L1548.39 27.2059 L1548.39 32.9987 L1533.04 32.9987 L1533.04 57.6282 Q1533.04 63.1779 1534.54 64.7578 Q1536.08 66.3376 1540.74 66.3376 L1548.39 66.3376 L1548.39 72.576 L1540.74 72.576 Q1532.11 72.576 1528.83 69.3758 Q1525.55 66.1351 1525.55 57.6282 L1525.55 32.9987 L1520.08 32.9987 L1520.08 27.2059 L1525.55 27.2059 L1525.55 14.324 L1533.04 14.324 Z" fill="#000000" fill-rule="nonzero" fill-opacity="1" /><path clip-path="url(#clip390)" d="M1578.82 49.7694 Q1569.78 49.7694 1566.3 51.8354 Q1562.81 53.9013 1562.81 58.8839 Q1562.81 62.8538 1565.41 65.2034 Q1568.04 67.5124 1572.54 67.5124 Q1578.73 67.5124 1582.46 63.1374 Q1586.23 58.7219 1586.23 51.4303 L1586.23 49.7694 L1578.82 49.7694 M1593.68 46.6907 L1593.68 72.576 L1586.23 72.576 L1586.23 65.6895 Q1583.68 69.8214 1579.87 71.8063 Q1576.06 73.7508 1570.55 73.7508 Q1563.58 73.7508 1559.45 69.8619 Q1555.36 65.9325 1555.36 59.3701 Q1555.36 51.7138 1560.46 47.825 Q1565.61 43.9361 1575.78 43.9361 L1586.23 43.9361 L1586.23 43.2069 Q1586.23 38.0623 1582.83 35.2672 Q1579.46 32.4315 1573.35 32.4315 Q1569.46 32.4315 1565.77 33.3632 Q1562.09 34.295 1558.68 36.1584 L1558.68 29.2718 Q1562.77 27.692 1566.62 26.9223 Q1570.47 26.1121 1574.12 26.1121 Q1583.96 26.1121 1588.82 31.2163 Q1593.68 36.3204 1593.68 46.6907 Z" fill="#000000" fill-rule="nonzero" fill-opacity="1" /><path clip-path="url(#clip390)" d="M1616.41 14.324 L1616.41 27.2059 L1631.76 27.2059 L1631.76 32.9987 L1616.41 32.9987 L1616.41 57.6282 Q1616.41 63.1779 1617.91 64.7578 Q1619.45 66.3376 1624.1 66.3376 L1631.76 66.3376 L1631.76 72.576 L1624.1 72.576 Q1615.48 72.576 1612.19 69.3758 Q1608.91 66.1351 1608.91 57.6282 L1608.91 32.9987 L1603.44 32.9987 L1603.44 27.2059 L1608.91 27.2059 L1608.91 14.324 L1616.41 14.324 Z" fill="#000000" fill-rule="nonzero" fill-opacity="1" /><path clip-path="url(#clip390)" d="M1641.56 27.2059 L1649.02 27.2059 L1649.02 72.576 L1641.56 72.576 L1641.56 27.2059 M1641.56 9.54393 L1649.02 9.54393 L1649.02 18.9825 L1641.56 18.9825 L1641.56 9.54393 Z" fill="#000000" fill-rule="nonzero" fill-opacity="1" /><path clip-path="url(#clip390)" d="M1682.19 32.4315 Q1676.2 32.4315 1672.72 37.1306 Q1669.23 41.7891 1669.23 49.9314 Q1669.23 58.0738 1672.67 62.7728 Q1676.16 67.4314 1682.19 67.4314 Q1688.15 67.4314 1691.63 62.7323 Q1695.12 58.0333 1695.12 49.9314 Q1695.12 41.8701 1691.63 37.1711 Q1688.15 32.4315 1682.19 32.4315 M1682.19 26.1121 Q1691.92 26.1121 1697.47 32.4315 Q1703.02 38.7509 1703.02 49.9314 Q1703.02 61.0714 1697.47 67.4314 Q1691.92 73.7508 1682.19 73.7508 Q1672.43 73.7508 1666.88 67.4314 Q1661.37 61.0714 1661.37 49.9314 Q1661.37 38.7509 1666.88 32.4315 Q1672.43 26.1121 1682.19 26.1121 Z" fill="#000000" fill-rule="nonzero" fill-opacity="1" /><path clip-path="url(#clip390)" d="M1753.09 45.1919 L1753.09 72.576 L1745.63 72.576 L1745.63 45.4349 Q1745.63 38.994 1743.12 35.7938 Q1740.61 32.5936 1735.59 32.5936 Q1729.55 32.5936 1726.07 36.4419 Q1722.58 40.2903 1722.58 46.9338 L1722.58 72.576 L1715.09 72.576 L1715.09 27.2059 L1722.58 27.2059 L1722.58 34.2544 Q1725.26 30.163 1728.86 28.1376 Q1732.51 26.1121 1737.25 26.1121 Q1745.06 26.1121 1749.07 30.9732 Q1753.09 35.7938 1753.09 45.1919 Z" fill="#000000" fill-rule="nonzero" fill-opacity="1" /><path clip-path="url(#clip392)" d="M295.201 1267.71 L295.201 1486.45 L848.858 1486.45 L848.858 1267.71 L295.201 1267.71 L295.201 1267.71  Z" fill="#009af9" fill-rule="evenodd" fill-opacity="1"/>
<polyline clip-path="url(#clip392)" style="stroke:#000000; stroke-linecap:round; stroke-linejoin:round; stroke-width:4; stroke-opacity:1; fill:none" points="295.201,1267.71 295.201,1486.45 848.858,1486.45 848.858,1267.71 295.201,1267.71 "/>
<path clip-path="url(#clip392)" d="M987.272 1436.31 L987.272 1486.45 L1540.93 1486.45 L1540.93 1436.31 L987.272 1436.31 L987.272 1436.31  Z" fill="#009af9" fill-rule="evenodd" fill-opacity="1"/>
<polyline clip-path="url(#clip392)" style="stroke:#000000; stroke-linecap:round; stroke-linejoin:round; stroke-width:4; stroke-opacity:1; fill:none" points="987.272,1436.31 987.272,1486.45 1540.93,1486.45 1540.93,1436.31 987.272,1436.31 "/>
<path clip-path="url(#clip392)" d="M1679.34 123.472 L1679.34 1486.45 L2233 1486.45 L2233 123.472 L1679.34 123.472 L1679.34 123.472  Z" fill="#009af9" fill-rule="evenodd" fill-opacity="1"/>
<polyline clip-path="url(#clip392)" style="stroke:#000000; stroke-linecap:round; stroke-linejoin:round; stroke-width:4; stroke-opacity:1; fill:none" points="1679.34,123.472 1679.34,1486.45 2233,1486.45 2233,123.472 1679.34,123.472 "/>
<circle clip-path="url(#clip392)" style="fill:#009af9; stroke:none; fill-opacity:0" cx="572.03" cy="1267.71" r="2"/>
<circle clip-path="url(#clip392)" style="fill:#009af9; stroke:none; fill-opacity:0" cx="1264.1" cy="1436.31" r="2"/>
<circle clip-path="url(#clip392)" style="fill:#009af9; stroke:none; fill-opacity:0" cx="1956.17" cy="123.472" r="2"/>
</svg>
