<?xml version="1.0" encoding="utf-8"?>
<svg xmlns="http://www.w3.org/2000/svg" xmlns:xlink="http://www.w3.org/1999/xlink" width="600" height="400" viewBox="0 0 2400 1600">
<defs>
  <clipPath id="clip830">
    <rect x="0" y="0" width="2400" height="1600"/>
  </clipPath>
</defs>
<path clip-path="url(#clip830)" d="M0 1600 L2400 1600 L2400 0 L0 0  Z" fill="#ffffff" fill-rule="evenodd" fill-opacity="1"/>
<defs>
  <clipPath id="clip831">
    <rect x="480" y="0" width="1681" height="1600"/>
  </clipPath>
</defs>
<path clip-path="url(#clip830)" d="M252.764 1423.18 L2352.76 1423.18 L2352.76 47.2441 L252.764 47.2441  Z" fill="#ffffff" fill-rule="evenodd" fill-opacity="1"/>
<defs>
  <clipPath id="clip832">
    <rect x="252" y="47" width="2101" height="1377"/>
  </clipPath>
</defs>
<polyline clip-path="url(#clip832)" style="stroke:#000000; stroke-linecap:round; stroke-linejoin:round; stroke-width:2; stroke-opacity:0.1; fill:none" points="642.385,1423.18 642.385,47.2441 "/>
<polyline clip-path="url(#clip832)" style="stroke:#000000; stroke-linecap:round; stroke-linejoin:round; stroke-width:2; stroke-opacity:0.1; fill:none" points="1192.7,1423.18 1192.7,47.2441 "/>
<polyline clip-path="url(#clip832)" style="stroke:#000000; stroke-linecap:round; stroke-linejoin:round; stroke-width:2; stroke-opacity:0.1; fill:none" points="1743.01,1423.18 1743.01,47.2441 "/>
<polyline clip-path="url(#clip832)" style="stroke:#000000; stroke-linecap:round; stroke-linejoin:round; stroke-width:2; stroke-opacity:0.1; fill:none" points="2293.32,1423.18 2293.32,47.2441 "/>
<polyline clip-path="url(#clip832)" style="stroke:#000000; stroke-linecap:round; stroke-linejoin:round; stroke-width:2; stroke-opacity:0.1; fill:none" points="252.764,1423.18 2352.76,1423.18 "/>
<polyline clip-path="url(#clip832)" style="stroke:#000000; stroke-linecap:round; stroke-linejoin:round; stroke-width:2; stroke-opacity:0.1; fill:none" points="252.764,1147.99 2352.76,1147.99 "/>
<polyline clip-path="url(#clip832)" style="stroke:#000000; stroke-linecap:round; stroke-linejoin:round; stroke-width:2; stroke-opacity:0.1; fill:none" points="252.764,872.806 2352.76,872.806 "/>
<polyline clip-path="url(#clip832)" style="stroke:#000000; stroke-linecap:round; stroke-linejoin:round; stroke-width:2; stroke-opacity:0.1; fill:none" points="252.764,597.618 2352.76,597.618 "/>
<polyline clip-path="url(#clip832)" style="stroke:#000000; stroke-linecap:round; stroke-linejoin:round; stroke-width:2; stroke-opacity:0.1; fill:none" points="252.764,322.431 2352.76,322.431 "/>
<polyline clip-path="url(#clip832)" style="stroke:#000000; stroke-linecap:round; stroke-linejoin:round; stroke-width:2; stroke-opacity:0.1; fill:none" points="252.764,47.2441 2352.76,47.2441 "/>
<polyline clip-path="url(#clip830)" style="stroke:#000000; stroke-linecap:round; stroke-linejoin:round; stroke-width:4; stroke-opacity:1; fill:none" points="252.764,1423.18 2352.76,1423.18 "/>
<polyline clip-path="url(#clip830)" style="stroke:#000000; stroke-linecap:round; stroke-linejoin:round; stroke-width:4; stroke-opacity:1; fill:none" points="642.385,1423.18 642.385,1404.28 "/>
<polyline clip-path="url(#clip830)" style="stroke:#000000; stroke-linecap:round; stroke-linejoin:round; stroke-width:4; stroke-opacity:1; fill:none" points="1192.7,1423.18 1192.7,1404.28 "/>
<polyline clip-path="url(#clip830)" style="stroke:#000000; stroke-linecap:round; stroke-linejoin:round; stroke-width:4; stroke-opacity:1; fill:none" points="1743.01,1423.18 1743.01,1404.28 "/>
<polyline clip-path="url(#clip830)" style="stroke:#000000; stroke-linecap:round; stroke-linejoin:round; stroke-width:4; stroke-opacity:1; fill:none" points="2293.32,1423.18 2293.32,1404.28 "/>
<path clip-path="url(#clip830)" d="M617.084 1451.02 L635.441 1451.02 L635.441 1454.96 L621.367 1454.96 L621.367 1463.43 Q622.385 1463.08 623.404 1462.92 Q624.422 1462.73 625.441 1462.73 Q631.228 1462.73 634.607 1465.9 Q637.987 1469.08 637.987 1474.49 Q637.987 1480.07 634.515 1483.17 Q631.043 1486.25 624.723 1486.25 Q622.547 1486.25 620.279 1485.88 Q618.033 1485.51 615.626 1484.77 L615.626 1480.07 Q617.709 1481.2 619.932 1481.76 Q622.154 1482.32 624.631 1482.32 Q628.635 1482.32 630.973 1480.21 Q633.311 1478.1 633.311 1474.49 Q633.311 1470.88 630.973 1468.77 Q628.635 1466.67 624.631 1466.67 Q622.756 1466.67 620.881 1467.08 Q619.029 1467.5 617.084 1468.38 L617.084 1451.02 Z" fill="#000000" fill-rule="nonzero" fill-opacity="1" /><path clip-path="url(#clip830)" d="M657.2 1454.1 Q653.589 1454.1 651.76 1457.66 Q649.955 1461.2 649.955 1468.33 Q649.955 1475.44 651.76 1479.01 Q653.589 1482.55 657.2 1482.55 Q660.834 1482.55 662.64 1479.01 Q664.468 1475.44 664.468 1468.33 Q664.468 1461.2 662.64 1457.66 Q660.834 1454.1 657.2 1454.1 M657.2 1450.39 Q663.01 1450.39 666.066 1455 Q669.144 1459.58 669.144 1468.33 Q669.144 1477.06 666.066 1481.67 Q663.01 1486.25 657.2 1486.25 Q651.39 1486.25 648.311 1481.67 Q645.255 1477.06 645.255 1468.33 Q645.255 1459.58 648.311 1455 Q651.39 1450.39 657.2 1450.39 Z" fill="#000000" fill-rule="nonzero" fill-opacity="1" /><path clip-path="url(#clip830)" d="M1152.3 1481.64 L1159.94 1481.64 L1159.94 1455.28 L1151.63 1456.95 L1151.63 1452.69 L1159.9 1451.02 L1164.57 1451.02 L1164.57 1481.64 L1172.21 1481.64 L1172.21 1485.58 L1152.3 1485.58 L1152.3 1481.64 Z" fill="#000000" fill-rule="nonzero" fill-opacity="1" /><path clip-path="url(#clip830)" d="M1191.66 1454.1 Q1188.04 1454.1 1186.22 1457.66 Q1184.41 1461.2 1184.41 1468.33 Q1184.41 1475.44 1186.22 1479.01 Q1188.04 1482.55 1191.66 1482.55 Q1195.29 1482.55 1197.1 1479.01 Q1198.92 1475.44 1198.92 1468.33 Q1198.92 1461.2 1197.1 1457.66 Q1195.29 1454.1 1191.66 1454.1 M1191.66 1450.39 Q1197.47 1450.39 1200.52 1455 Q1203.6 1459.58 1203.6 1468.33 Q1203.6 1477.06 1200.52 1481.67 Q1197.47 1486.25 1191.66 1486.25 Q1185.85 1486.25 1182.77 1481.67 Q1179.71 1477.06 1179.71 1468.33 Q1179.71 1459.58 1182.77 1455 Q1185.85 1450.39 1191.66 1450.39 Z" fill="#000000" fill-rule="nonzero" fill-opacity="1" /><path clip-path="url(#clip830)" d="M1221.82 1454.1 Q1218.21 1454.1 1216.38 1457.66 Q1214.57 1461.2 1214.57 1468.33 Q1214.57 1475.44 1216.38 1479.01 Q1218.21 1482.55 1221.82 1482.55 Q1225.45 1482.55 1227.26 1479.01 Q1229.09 1475.44 1229.09 1468.33 Q1229.09 1461.2 1227.26 1457.66 Q1225.45 1454.1 1221.82 1454.1 M1221.82 1450.39 Q1227.63 1450.39 1230.68 1455 Q1233.76 1459.58 1233.76 1468.33 Q1233.76 1477.06 1230.68 1481.67 Q1227.63 1486.25 1221.82 1486.25 Q1216.01 1486.25 1212.93 1481.67 Q1209.87 1477.06 1209.87 1468.33 Q1209.87 1459.58 1212.93 1455 Q1216.01 1450.39 1221.82 1450.39 Z" fill="#000000" fill-rule="nonzero" fill-opacity="1" /><path clip-path="url(#clip830)" d="M1702.62 1481.64 L1710.26 1481.64 L1710.26 1455.28 L1701.95 1456.95 L1701.95 1452.69 L1710.21 1451.02 L1714.88 1451.02 L1714.88 1481.64 L1722.52 1481.64 L1722.52 1485.58 L1702.62 1485.58 L1702.62 1481.64 Z" fill="#000000" fill-rule="nonzero" fill-opacity="1" /><path clip-path="url(#clip830)" d="M1732.01 1451.02 L1750.37 1451.02 L1750.37 1454.96 L1736.3 1454.96 L1736.3 1463.43 Q1737.32 1463.08 1738.33 1462.92 Q1739.35 1462.73 1740.37 1462.73 Q1746.16 1462.73 1749.54 1465.9 Q1752.92 1469.08 1752.92 1474.49 Q1752.92 1480.07 1749.44 1483.17 Q1745.97 1486.25 1739.65 1486.25 Q1737.48 1486.25 1735.21 1485.88 Q1732.96 1485.51 1730.56 1484.77 L1730.56 1480.07 Q1732.64 1481.2 1734.86 1481.76 Q1737.08 1482.32 1739.56 1482.32 Q1743.57 1482.32 1745.9 1480.21 Q1748.24 1478.1 1748.24 1474.49 Q1748.24 1470.88 1745.9 1468.77 Q1743.57 1466.67 1739.56 1466.67 Q1737.69 1466.67 1735.81 1467.08 Q1733.96 1467.5 1732.01 1468.38 L1732.01 1451.02 Z" fill="#000000" fill-rule="nonzero" fill-opacity="1" /><path clip-path="url(#clip830)" d="M1772.13 1454.1 Q1768.52 1454.1 1766.69 1457.66 Q1764.88 1461.2 1764.88 1468.33 Q1764.88 1475.44 1766.69 1479.01 Q1768.52 1482.55 1772.13 1482.55 Q1775.76 1482.55 1777.57 1479.01 Q1779.4 1475.44 1779.4 1468.33 Q1779.4 1461.2 1777.57 1457.66 Q1775.76 1454.1 1772.13 1454.1 M1772.13 1450.39 Q1777.94 1450.39 1781 1455 Q1784.07 1459.58 1784.07 1468.33 Q1784.07 1477.06 1781 1481.67 Q1777.94 1486.25 1772.13 1486.25 Q1766.32 1486.25 1763.24 1481.67 Q1760.19 1477.06 1760.19 1468.33 Q1760.19 1459.58 1763.24 1455 Q1766.32 1450.39 1772.13 1450.39 Z" fill="#000000" fill-rule="nonzero" fill-opacity="1" /><path clip-path="url(#clip830)" d="M2257.01 1481.64 L2273.33 1481.64 L2273.33 1485.58 L2251.39 1485.58 L2251.39 1481.64 Q2254.05 1478.89 2258.63 1474.26 Q2263.24 1469.61 2264.42 1468.27 Q2266.67 1465.74 2267.55 1464.01 Q2268.45 1462.25 2268.45 1460.56 Q2268.45 1457.8 2266.51 1456.07 Q2264.58 1454.33 2261.48 1454.33 Q2259.28 1454.33 2256.83 1455.09 Q2254.4 1455.86 2251.62 1457.41 L2251.62 1452.69 Q2254.45 1451.55 2256.9 1450.97 Q2259.35 1450.39 2261.39 1450.39 Q2266.76 1450.39 2269.95 1453.08 Q2273.15 1455.77 2273.15 1460.26 Q2273.15 1462.39 2272.34 1464.31 Q2271.55 1466.2 2269.44 1468.8 Q2268.87 1469.47 2265.76 1472.69 Q2262.66 1475.88 2257.01 1481.64 Z" fill="#000000" fill-rule="nonzero" fill-opacity="1" /><path clip-path="url(#clip830)" d="M2293.15 1454.1 Q2289.54 1454.1 2287.71 1457.66 Q2285.9 1461.2 2285.9 1468.33 Q2285.9 1475.44 2287.71 1479.01 Q2289.54 1482.55 2293.15 1482.55 Q2296.78 1482.55 2298.59 1479.01 Q2300.42 1475.44 2300.42 1468.33 Q2300.42 1461.2 2298.59 1457.66 Q2296.78 1454.1 2293.15 1454.1 M2293.15 1450.39 Q2298.96 1450.39 2302.01 1455 Q2305.09 1459.58 2305.09 1468.33 Q2305.09 1477.06 2302.01 1481.67 Q2298.96 1486.25 2293.15 1486.25 Q2287.34 1486.25 2284.26 1481.67 Q2281.2 1477.06 2281.2 1468.33 Q2281.2 1459.58 2284.26 1455 Q2287.34 1450.39 2293.15 1450.39 Z" fill="#000000" fill-rule="nonzero" fill-opacity="1" /><path clip-path="url(#clip830)" d="M2323.31 1454.1 Q2319.7 1454.1 2317.87 1457.66 Q2316.07 1461.2 2316.07 1468.33 Q2316.07 1475.44 2317.87 1479.01 Q2319.7 1482.55 2323.31 1482.55 Q2326.94 1482.55 2328.75 1479.01 Q2330.58 1475.44 2330.58 1468.33 Q2330.58 1461.2 2328.75 1457.66 Q2326.94 1454.1 2323.31 1454.1 M2323.31 1450.39 Q2329.12 1450.39 2332.18 1455 Q2335.25 1459.58 2335.25 1468.33 Q2335.25 1477.06 2332.18 1481.67 Q2329.12 1486.25 2323.31 1486.25 Q2317.5 1486.25 2314.42 1481.67 Q2311.37 1477.06 2311.37 1468.33 Q2311.37 1459.58 2314.42 1455 Q2317.5 1450.39 2323.31 1450.39 Z" fill="#000000" fill-rule="nonzero" fill-opacity="1" /><path clip-path="url(#clip830)" d="M1060.82 1520.52 L1070.4 1520.52 L1082.52 1552.86 L1094.71 1520.52 L1104.29 1520.52 L1104.29 1568.04 L1098.02 1568.04 L1098.02 1526.32 L1085.77 1558.91 L1079.31 1558.91 L1067.05 1526.32 L1067.05 1568.04 L1060.82 1568.04 L1060.82 1520.52 Z" fill="#000000" fill-rule="nonzero" fill-opacity="1" /><path clip-path="url(#clip830)" d="M1133 1550.12 Q1125.9 1550.12 1123.17 1551.75 Q1120.43 1553.37 1120.43 1557.29 Q1120.43 1560.4 1122.47 1562.25 Q1124.54 1564.07 1128.07 1564.07 Q1132.94 1564.07 1135.87 1560.63 Q1138.83 1557.16 1138.83 1551.43 L1138.83 1550.12 L1133 1550.12 M1144.68 1547.71 L1144.68 1568.04 L1138.83 1568.04 L1138.83 1562.63 Q1136.82 1565.88 1133.83 1567.44 Q1130.84 1568.97 1126.51 1568.97 Q1121.03 1568.97 1117.79 1565.91 Q1114.57 1562.82 1114.57 1557.67 Q1114.57 1551.65 1118.58 1548.6 Q1122.63 1545.54 1130.62 1545.54 L1138.83 1545.54 L1138.83 1544.97 Q1138.83 1540.93 1136.15 1538.73 Q1133.51 1536.5 1128.71 1536.5 Q1125.65 1536.5 1122.75 1537.23 Q1119.86 1537.97 1117.18 1539.43 L1117.18 1534.02 Q1120.4 1532.78 1123.42 1532.17 Q1126.45 1531.54 1129.31 1531.54 Q1137.04 1531.54 1140.86 1535.55 Q1144.68 1539.56 1144.68 1547.71 Z" fill="#000000" fill-rule="nonzero" fill-opacity="1" /><path clip-path="url(#clip830)" d="M1186.38 1532.4 L1173.49 1549.74 L1187.05 1568.04 L1180.14 1568.04 L1169.76 1554.04 L1159.39 1568.04 L1152.48 1568.04 L1166.33 1549.39 L1153.66 1532.4 L1160.57 1532.4 L1170.02 1545.1 L1179.47 1532.4 L1186.38 1532.4 Z" fill="#000000" fill-rule="nonzero" fill-opacity="1" /><path clip-path="url(#clip830)" d="M1216.3 1520.52 L1243.61 1520.52 L1243.61 1525.93 L1222.73 1525.93 L1222.73 1539.94 L1241.57 1539.94 L1241.57 1545.35 L1222.73 1545.35 L1222.73 1568.04 L1216.3 1568.04 L1216.3 1520.52 Z" fill="#000000" fill-rule="nonzero" fill-opacity="1" /><path clip-path="url(#clip830)" d="M1269.45 1537.87 Q1268.46 1537.3 1267.29 1537.04 Q1266.14 1536.76 1264.74 1536.76 Q1259.78 1536.76 1257.1 1540 Q1254.46 1543.22 1254.46 1549.27 L1254.46 1568.04 L1248.57 1568.04 L1248.57 1532.4 L1254.46 1532.4 L1254.46 1537.93 Q1256.31 1534.69 1259.27 1533.13 Q1262.23 1531.54 1266.46 1531.54 Q1267.06 1531.54 1267.8 1531.63 Q1268.53 1531.7 1269.42 1531.85 L1269.45 1537.87 Z" fill="#000000" fill-rule="nonzero" fill-opacity="1" /><path clip-path="url(#clip830)" d="M1304.65 1548.76 L1304.65 1551.62 L1277.73 1551.62 Q1278.11 1557.67 1281.36 1560.85 Q1284.63 1564 1290.46 1564 Q1293.83 1564 1296.98 1563.17 Q1300.17 1562.35 1303.29 1560.69 L1303.29 1566.23 Q1300.13 1567.57 1296.82 1568.27 Q1293.51 1568.97 1290.11 1568.97 Q1281.58 1568.97 1276.58 1564 Q1271.62 1559.04 1271.62 1550.57 Q1271.62 1541.82 1276.33 1536.69 Q1281.07 1531.54 1289.09 1531.54 Q1296.28 1531.54 1300.45 1536.18 Q1304.65 1540.8 1304.65 1548.76 M1298.8 1547.04 Q1298.73 1542.23 1296.09 1539.37 Q1293.48 1536.5 1289.15 1536.5 Q1284.25 1536.5 1281.29 1539.27 Q1278.36 1542.04 1277.92 1547.07 L1298.8 1547.04 Z" fill="#000000" fill-rule="nonzero" fill-opacity="1" /><path clip-path="url(#clip830)" d="M1317.77 1550.25 Q1317.77 1556.71 1320.41 1560.4 Q1323.08 1564.07 1327.73 1564.07 Q1332.38 1564.07 1335.05 1560.4 Q1337.72 1556.71 1337.72 1550.25 Q1337.72 1543.79 1335.05 1540.13 Q1332.38 1536.44 1327.73 1536.44 Q1323.08 1536.44 1320.41 1540.13 Q1317.77 1543.79 1317.77 1550.25 M1337.72 1562.7 Q1335.88 1565.88 1333.04 1567.44 Q1330.24 1568.97 1326.3 1568.97 Q1319.84 1568.97 1315.76 1563.81 Q1311.72 1558.65 1311.72 1550.25 Q1311.72 1541.85 1315.76 1536.69 Q1319.84 1531.54 1326.3 1531.54 Q1330.24 1531.54 1333.04 1533.1 Q1335.88 1534.62 1337.72 1537.81 L1337.72 1532.4 L1343.58 1532.4 L1343.58 1581.6 L1337.72 1581.6 L1337.72 1562.7 Z" fill="#000000" fill-rule="nonzero" fill-opacity="1" /><path clip-path="url(#clip830)" d="M1355.04 1553.98 L1355.04 1532.4 L1360.89 1532.4 L1360.89 1553.75 Q1360.89 1558.81 1362.87 1561.36 Q1364.84 1563.87 1368.79 1563.87 Q1373.53 1563.87 1376.27 1560.85 Q1379.04 1557.83 1379.04 1552.61 L1379.04 1532.4 L1384.89 1532.4 L1384.89 1568.04 L1379.04 1568.04 L1379.04 1562.57 Q1376.9 1565.82 1374.07 1567.41 Q1371.27 1568.97 1367.55 1568.97 Q1361.4 1568.97 1358.22 1565.15 Q1355.04 1561.33 1355.04 1553.98 M1369.77 1531.54 L1369.77 1531.54 Z" fill="#000000" fill-rule="nonzero" fill-opacity="1" /><path clip-path="url(#clip830)" d="M1427.45 1548.76 L1427.45 1551.62 L1400.52 1551.62 Q1400.9 1557.67 1404.15 1560.85 Q1407.43 1564 1413.25 1564 Q1416.63 1564 1419.78 1563.17 Q1422.96 1562.35 1426.08 1560.69 L1426.08 1566.23 Q1422.93 1567.57 1419.62 1568.27 Q1416.31 1568.97 1412.9 1568.97 Q1404.37 1568.97 1399.38 1564 Q1394.41 1559.04 1394.41 1550.57 Q1394.41 1541.82 1399.12 1536.69 Q1403.86 1531.54 1411.88 1531.54 Q1419.08 1531.54 1423.25 1536.18 Q1427.45 1540.8 1427.45 1548.76 M1421.59 1547.04 Q1421.53 1542.23 1418.89 1539.37 Q1416.28 1536.5 1411.95 1536.5 Q1407.05 1536.5 1404.09 1539.27 Q1401.16 1542.04 1400.71 1547.07 L1421.59 1547.04 Z" fill="#000000" fill-rule="nonzero" fill-opacity="1" /><path clip-path="url(#clip830)" d="M1466.69 1546.53 L1466.69 1568.04 L1460.84 1568.04 L1460.84 1546.72 Q1460.84 1541.66 1458.86 1539.14 Q1456.89 1536.63 1452.94 1536.63 Q1448.2 1536.63 1445.46 1539.65 Q1442.73 1542.68 1442.73 1547.9 L1442.73 1568.04 L1436.84 1568.04 L1436.84 1532.4 L1442.73 1532.4 L1442.73 1537.93 Q1444.83 1534.72 1447.66 1533.13 Q1450.52 1531.54 1454.25 1531.54 Q1460.39 1531.54 1463.54 1535.36 Q1466.69 1539.14 1466.69 1546.53 Z" fill="#000000" fill-rule="nonzero" fill-opacity="1" /><path clip-path="url(#clip830)" d="M1504.03 1533.76 L1504.03 1539.24 Q1501.55 1537.87 1499.03 1537.2 Q1496.55 1536.5 1494 1536.5 Q1488.3 1536.5 1485.15 1540.13 Q1482 1543.73 1482 1550.25 Q1482 1556.78 1485.15 1560.4 Q1488.3 1564 1494 1564 Q1496.55 1564 1499.03 1563.33 Q1501.55 1562.63 1504.03 1561.26 L1504.03 1566.68 Q1501.58 1567.82 1498.94 1568.39 Q1496.33 1568.97 1493.37 1568.97 Q1485.31 1568.97 1480.57 1563.91 Q1475.83 1558.85 1475.83 1550.25 Q1475.83 1541.53 1480.6 1536.53 Q1485.41 1531.54 1493.75 1531.54 Q1496.45 1531.54 1499.03 1532.11 Q1501.61 1532.65 1504.03 1533.76 Z" fill="#000000" fill-rule="nonzero" fill-opacity="1" /><path clip-path="url(#clip830)" d="M1529.04 1571.35 Q1526.56 1577.72 1524.21 1579.66 Q1521.85 1581.6 1517.9 1581.6 L1513.23 1581.6 L1513.23 1576.7 L1516.66 1576.7 Q1519.08 1576.7 1520.42 1575.56 Q1521.76 1574.41 1523.38 1570.14 L1524.43 1567.47 L1510.01 1532.4 L1516.22 1532.4 L1527.36 1560.28 L1538.5 1532.4 L1544.7 1532.4 L1529.04 1571.35 Z" fill="#000000" fill-rule="nonzero" fill-opacity="1" /><polyline clip-path="url(#clip830)" style="stroke:#000000; stroke-linecap:round; stroke-linejoin:round; stroke-width:4; stroke-opacity:1; fill:none" points="252.764,1423.18 252.764,47.2441 "/>
<polyline clip-path="url(#clip830)" style="stroke:#000000; stroke-linecap:round; stroke-linejoin:round; stroke-width:4; stroke-opacity:1; fill:none" points="252.764,1423.18 271.662,1423.18 "/>
<polyline clip-path="url(#clip830)" style="stroke:#000000; stroke-linecap:round; stroke-linejoin:round; stroke-width:4; stroke-opacity:1; fill:none" points="252.764,1147.99 271.662,1147.99 "/>
<polyline clip-path="url(#clip830)" style="stroke:#000000; stroke-linecap:round; stroke-linejoin:round; stroke-width:4; stroke-opacity:1; fill:none" points="252.764,872.806 271.662,872.806 "/>
<polyline clip-path="url(#clip830)" style="stroke:#000000; stroke-linecap:round; stroke-linejoin:round; stroke-width:4; stroke-opacity:1; fill:none" points="252.764,597.618 271.662,597.618 "/>
<polyline clip-path="url(#clip830)" style="stroke:#000000; stroke-linecap:round; stroke-linejoin:round; stroke-width:4; stroke-opacity:1; fill:none" points="252.764,322.431 271.662,322.431 "/>
<polyline clip-path="url(#clip830)" style="stroke:#000000; stroke-linecap:round; stroke-linejoin:round; stroke-width:4; stroke-opacity:1; fill:none" points="252.764,47.2441 271.662,47.2441 "/>
<path clip-path="url(#clip830)" d="M116.135 1442.97 L123.774 1442.97 L123.774 1416.61 L115.464 1418.27 L115.464 1414.01 L123.728 1412.35 L128.404 1412.35 L128.404 1442.97 L136.042 1442.97 L136.042 1446.91 L116.135 1446.91 L116.135 1442.97 Z" fill="#000000" fill-rule="nonzero" fill-opacity="1" /><path clip-path="url(#clip830)" d="M155.487 1415.43 Q151.876 1415.43 150.047 1418.99 Q148.241 1422.53 148.241 1429.66 Q148.241 1436.77 150.047 1440.33 Q151.876 1443.88 155.487 1443.88 Q159.121 1443.88 160.927 1440.33 Q162.755 1436.77 162.755 1429.66 Q162.755 1422.53 160.927 1418.99 Q159.121 1415.43 155.487 1415.43 M155.487 1411.72 Q161.297 1411.72 164.352 1416.33 Q167.431 1420.91 167.431 1429.66 Q167.431 1438.39 164.352 1443 Q161.297 1447.58 155.487 1447.58 Q149.677 1447.58 146.598 1443 Q143.542 1438.39 143.542 1429.66 Q143.542 1420.91 146.598 1416.33 Q149.677 1411.72 155.487 1411.72 Z" fill="#000000" fill-rule="nonzero" fill-opacity="1" /><path clip-path="url(#clip830)" d="M167.431 1405.82 L191.543 1405.82 L191.543 1409.02 L167.431 1409.02 L167.431 1405.82 Z" fill="#000000" fill-rule="nonzero" fill-opacity="1" /><path clip-path="url(#clip830)" d="M199.781 1391.42 L214.695 1391.42 L214.695 1394.61 L203.26 1394.61 L203.26 1401.5 Q204.088 1401.22 204.915 1401.08 Q205.743 1400.93 206.57 1400.93 Q211.272 1400.93 214.018 1403.51 Q216.764 1406.09 216.764 1410.49 Q216.764 1415.02 213.943 1417.54 Q211.122 1420.04 205.987 1420.04 Q204.219 1420.04 202.376 1419.74 Q200.552 1419.44 198.596 1418.84 L198.596 1415.02 Q200.288 1415.94 202.094 1416.39 Q203.899 1416.85 205.912 1416.85 Q209.166 1416.85 211.065 1415.13 Q212.965 1413.42 212.965 1410.49 Q212.965 1407.55 211.065 1405.84 Q209.166 1404.13 205.912 1404.13 Q204.388 1404.13 202.865 1404.47 Q201.36 1404.81 199.781 1405.52 L199.781 1391.42 Z" fill="#000000" fill-rule="nonzero" fill-opacity="1" /><path clip-path="url(#clip830)" d="M114.931 1167.79 L122.57 1167.79 L122.57 1141.42 L114.26 1143.09 L114.26 1138.83 L122.524 1137.16 L127.2 1137.16 L127.2 1167.79 L134.839 1167.79 L134.839 1171.72 L114.931 1171.72 L114.931 1167.79 Z" fill="#000000" fill-rule="nonzero" fill-opacity="1" /><path clip-path="url(#clip830)" d="M154.283 1140.24 Q150.672 1140.24 148.843 1143.8 Q147.038 1147.35 147.038 1154.48 Q147.038 1161.58 148.843 1165.15 Q150.672 1168.69 154.283 1168.69 Q157.917 1168.69 159.723 1165.15 Q161.552 1161.58 161.552 1154.48 Q161.552 1147.35 159.723 1143.8 Q157.917 1140.24 154.283 1140.24 M154.283 1136.54 Q160.093 1136.54 163.149 1141.14 Q166.227 1145.73 166.227 1154.48 Q166.227 1163.2 163.149 1167.81 Q160.093 1172.39 154.283 1172.39 Q148.473 1172.39 145.394 1167.81 Q142.339 1163.2 142.339 1154.48 Q142.339 1145.73 145.394 1141.14 Q148.473 1136.54 154.283 1136.54 Z" fill="#000000" fill-rule="nonzero" fill-opacity="1" /><path clip-path="url(#clip830)" d="M166.227 1130.64 L190.339 1130.64 L190.339 1133.83 L166.227 1133.83 L166.227 1130.64 Z" fill="#000000" fill-rule="nonzero" fill-opacity="1" /><path clip-path="url(#clip830)" d="M208.978 1119.54 L199.386 1134.53 L208.978 1134.53 L208.978 1119.54 M207.981 1116.23 L212.758 1116.23 L212.758 1134.53 L216.764 1134.53 L216.764 1137.69 L212.758 1137.69 L212.758 1144.31 L208.978 1144.31 L208.978 1137.69 L196.301 1137.69 L196.301 1134.02 L207.981 1116.23 Z" fill="#000000" fill-rule="nonzero" fill-opacity="1" /><path clip-path="url(#clip830)" d="M115.853 892.598 L123.492 892.598 L123.492 866.232 L115.182 867.899 L115.182 863.64 L123.446 861.973 L128.121 861.973 L128.121 892.598 L135.76 892.598 L135.76 896.533 L115.853 896.533 L115.853 892.598 Z" fill="#000000" fill-rule="nonzero" fill-opacity="1" /><path clip-path="url(#clip830)" d="M155.205 865.052 Q151.594 865.052 149.765 868.617 Q147.959 872.158 147.959 879.288 Q147.959 886.394 149.765 889.959 Q151.594 893.501 155.205 893.501 Q158.839 893.501 160.644 889.959 Q162.473 886.394 162.473 879.288 Q162.473 872.158 160.644 868.617 Q158.839 865.052 155.205 865.052 M155.205 861.348 Q161.015 861.348 164.07 865.955 Q167.149 870.538 167.149 879.288 Q167.149 888.015 164.07 892.621 Q161.015 897.204 155.205 897.204 Q149.395 897.204 146.316 892.621 Q143.26 888.015 143.26 879.288 Q143.26 870.538 146.316 865.955 Q149.395 861.348 155.205 861.348 Z" fill="#000000" fill-rule="nonzero" fill-opacity="1" /><path clip-path="url(#clip830)" d="M167.149 855.449 L191.261 855.449 L191.261 858.647 L167.149 858.647 L167.149 855.449 Z" fill="#000000" fill-rule="nonzero" fill-opacity="1" /><path clip-path="url(#clip830)" d="M210.971 853.982 Q213.698 854.566 215.222 856.409 Q216.764 858.252 216.764 860.96 Q216.764 865.117 213.905 867.392 Q211.046 869.668 205.78 869.668 Q204.012 869.668 202.132 869.311 Q200.27 868.972 198.276 868.276 L198.276 864.609 Q199.856 865.53 201.737 866.001 Q203.617 866.471 205.667 866.471 Q209.241 866.471 211.103 865.06 Q212.984 863.65 212.984 860.96 Q212.984 858.478 211.234 857.086 Q209.504 855.675 206.401 855.675 L203.128 855.675 L203.128 852.553 L206.551 852.553 Q209.354 852.553 210.84 851.443 Q212.325 850.315 212.325 848.209 Q212.325 846.046 210.783 844.898 Q209.26 843.732 206.401 843.732 Q204.84 843.732 203.053 844.071 Q201.266 844.409 199.122 845.124 L199.122 841.739 Q201.285 841.137 203.166 840.836 Q205.066 840.535 206.739 840.535 Q211.065 840.535 213.585 842.51 Q216.106 844.466 216.106 847.814 Q216.106 850.146 214.77 851.763 Q213.435 853.362 210.971 853.982 Z" fill="#000000" fill-rule="nonzero" fill-opacity="1" /><path clip-path="url(#clip830)" d="M116.624 617.411 L124.263 617.411 L124.263 591.045 L115.953 592.712 L115.953 588.453 L124.217 586.786 L128.893 586.786 L128.893 617.411 L136.531 617.411 L136.531 621.346 L116.624 621.346 L116.624 617.411 Z" fill="#000000" fill-rule="nonzero" fill-opacity="1" /><path clip-path="url(#clip830)" d="M155.976 589.865 Q152.365 589.865 150.536 593.429 Q148.73 596.971 148.73 604.101 Q148.73 611.207 150.536 614.772 Q152.365 618.314 155.976 618.314 Q159.61 618.314 161.416 614.772 Q163.244 611.207 163.244 604.101 Q163.244 596.971 161.416 593.429 Q159.61 589.865 155.976 589.865 M155.976 586.161 Q161.786 586.161 164.841 590.767 Q167.92 595.351 167.92 604.101 Q167.92 612.828 164.841 617.434 Q161.786 622.017 155.976 622.017 Q150.166 622.017 147.087 617.434 Q144.031 612.828 144.031 604.101 Q144.031 595.351 147.087 590.767 Q150.166 586.161 155.976 586.161 Z" fill="#000000" fill-rule="nonzero" fill-opacity="1" /><path clip-path="url(#clip830)" d="M167.92 580.262 L192.032 580.262 L192.032 583.46 L167.92 583.46 L167.92 580.262 Z" fill="#000000" fill-rule="nonzero" fill-opacity="1" /><path clip-path="url(#clip830)" d="M203.504 590.738 L216.764 590.738 L216.764 593.936 L198.934 593.936 L198.934 590.738 Q201.097 588.5 204.821 584.739 Q208.564 580.958 209.523 579.867 Q211.347 577.817 212.062 576.407 Q212.796 574.977 212.796 573.604 Q212.796 571.366 211.216 569.956 Q209.655 568.545 207.134 568.545 Q205.348 568.545 203.354 569.166 Q201.379 569.786 199.122 571.047 L199.122 567.21 Q201.417 566.288 203.41 565.818 Q205.404 565.348 207.059 565.348 Q211.423 565.348 214.018 567.529 Q216.613 569.711 216.613 573.36 Q216.613 575.09 215.955 576.651 Q215.316 578.193 213.604 580.3 Q213.134 580.845 210.614 583.46 Q208.094 586.055 203.504 590.738 Z" fill="#000000" fill-rule="nonzero" fill-opacity="1" /><path clip-path="url(#clip830)" d="M116.323 342.224 L123.962 342.224 L123.962 315.858 L115.652 317.525 L115.652 313.266 L123.916 311.599 L128.592 311.599 L128.592 342.224 L136.231 342.224 L136.231 346.159 L116.323 346.159 L116.323 342.224 Z" fill="#000000" fill-rule="nonzero" fill-opacity="1" /><path clip-path="url(#clip830)" d="M155.675 314.678 Q152.064 314.678 150.235 318.242 Q148.43 321.784 148.43 328.914 Q148.43 336.02 150.235 339.585 Q152.064 343.126 155.675 343.126 Q159.309 343.126 161.115 339.585 Q162.943 336.02 162.943 328.914 Q162.943 321.784 161.115 318.242 Q159.309 314.678 155.675 314.678 M155.675 310.974 Q161.485 310.974 164.541 315.58 Q167.619 320.164 167.619 328.914 Q167.619 337.64 164.541 342.247 Q161.485 346.83 155.675 346.83 Q149.865 346.83 146.786 342.247 Q143.73 337.64 143.73 328.914 Q143.73 320.164 146.786 315.58 Q149.865 310.974 155.675 310.974 Z" fill="#000000" fill-rule="nonzero" fill-opacity="1" /><path clip-path="url(#clip830)" d="M167.619 305.075 L191.731 305.075 L191.731 308.273 L167.619 308.273 L167.619 305.075 Z" fill="#000000" fill-rule="nonzero" fill-opacity="1" /><path clip-path="url(#clip830)" d="M200.589 315.551 L206.796 315.551 L206.796 294.129 L200.044 295.483 L200.044 292.023 L206.758 290.668 L210.557 290.668 L210.557 315.551 L216.764 315.551 L216.764 318.748 L200.589 318.748 L200.589 315.551 Z" fill="#000000" fill-rule="nonzero" fill-opacity="1" /><path clip-path="url(#clip830)" d="M146.058 67.0365 L153.697 67.0365 L153.697 40.6709 L145.387 42.3376 L145.387 38.0784 L153.651 36.4117 L158.327 36.4117 L158.327 67.0365 L165.966 67.0365 L165.966 70.9717 L146.058 70.9717 L146.058 67.0365 Z" fill="#000000" fill-rule="nonzero" fill-opacity="1" /><path clip-path="url(#clip830)" d="M185.41 39.4904 Q181.799 39.4904 179.97 43.0552 Q178.165 46.5968 178.165 53.7264 Q178.165 60.8329 179.97 64.3977 Q181.799 67.9393 185.41 67.9393 Q189.044 67.9393 190.85 64.3977 Q192.678 60.8329 192.678 53.7264 Q192.678 46.5968 190.85 43.0552 Q189.044 39.4904 185.41 39.4904 M185.41 35.7867 Q191.22 35.7867 194.276 40.3932 Q197.354 44.9765 197.354 53.7264 Q197.354 62.4532 194.276 67.0597 Q191.22 71.643 185.41 71.643 Q179.6 71.643 176.521 67.0597 Q173.466 62.4532 173.466 53.7264 Q173.466 44.9765 176.521 40.3932 Q179.6 35.7867 185.41 35.7867 Z" fill="#000000" fill-rule="nonzero" fill-opacity="1" /><path clip-path="url(#clip830)" d="M207.059 17.9827 Q204.125 17.9827 202.639 20.8791 Q201.172 23.7567 201.172 29.5495 Q201.172 35.3235 202.639 38.2199 Q204.125 41.0975 207.059 41.0975 Q210.012 41.0975 211.479 38.2199 Q212.965 35.3235 212.965 29.5495 Q212.965 23.7567 211.479 20.8791 Q210.012 17.9827 207.059 17.9827 M207.059 14.9735 Q211.78 14.9735 214.263 18.7162 Q216.764 22.4402 216.764 29.5495 Q216.764 36.64 214.263 40.3828 Q211.78 44.1067 207.059 44.1067 Q202.338 44.1067 199.837 40.3828 Q197.354 36.64 197.354 29.5495 Q197.354 22.4402 199.837 18.7162 Q202.338 14.9735 207.059 14.9735 Z" fill="#000000" fill-rule="nonzero" fill-opacity="1" /><path clip-path="url(#clip830)" d="M16.4842 799.331 L16.4842 789.75 L48.8219 777.623 L16.4842 765.433 L16.4842 755.853 L64.0042 755.853 L64.0042 762.123 L22.277 762.123 L54.8694 774.377 L54.8694 780.838 L22.277 793.092 L64.0042 793.092 L64.0042 799.331 L16.4842 799.331 Z" fill="#000000" fill-rule="nonzero" fill-opacity="1" /><path clip-path="url(#clip830)" d="M18.0438 714.603 L24.314 714.603 Q22.5634 718.263 21.704 721.51 Q20.8447 724.756 20.8447 727.78 Q20.8447 733.032 22.8817 735.896 Q24.9187 738.729 28.6745 738.729 Q31.8255 738.729 33.4488 736.851 Q35.0402 734.941 36.0269 729.658 L36.8226 725.775 Q38.1912 718.582 41.6605 715.176 Q45.098 711.738 50.8908 711.738 Q57.7976 711.738 61.3624 716.385 Q64.9272 721.001 64.9272 729.944 Q64.9272 733.318 64.1633 737.138 Q63.3994 740.925 61.9035 744.999 L55.2831 744.999 Q57.4793 741.084 58.5933 737.329 Q59.7073 733.573 59.7073 729.944 Q59.7073 724.438 57.543 721.446 Q55.3786 718.454 51.3682 718.454 Q47.8671 718.454 45.8937 720.619 Q43.9204 722.751 42.9337 727.653 L42.1698 731.568 Q40.7375 738.761 37.682 741.976 Q34.6264 745.19 29.1837 745.19 Q22.8817 745.19 19.2532 740.766 Q15.6248 736.31 15.6248 728.512 Q15.6248 725.17 16.2295 721.701 Q16.8343 718.231 18.0438 714.603 Z" fill="#000000" fill-rule="nonzero" fill-opacity="1" /><path clip-path="url(#clip830)" d="M16.4842 701.712 L16.4842 671.666 L21.895 671.666 L21.895 695.283 L35.9632 695.283 L35.9632 672.653 L41.3741 672.653 L41.3741 695.283 L58.5933 695.283 L58.5933 671.093 L64.0042 671.093 L64.0042 701.712 L16.4842 701.712 Z" fill="#000000" fill-rule="nonzero" fill-opacity="1" /><polyline clip-path="url(#clip832)" style="stroke:#009af9; stroke-linecap:round; stroke-linejoin:round; stroke-width:8; stroke-opacity:1; fill:none" points="312.198,547.185 532.323,547.263 752.448,568.022 972.573,639.056 1192.7,721.39 1412.82,837.828 1632.95,958.06 1853.07,1147.99 2073.2,1190.62 2293.32,1340.34 "/>
<circle clip-path="url(#clip832)" cx="312.198" cy="547.185" r="14.4" fill="#009af9" fill-rule="evenodd" fill-opacity="1" stroke="#000000" stroke-opacity="1" stroke-width="3.2"/>
<circle clip-path="url(#clip832)" cx="532.323" cy="547.263" r="14.4" fill="#009af9" fill-rule="evenodd" fill-opacity="1" stroke="#000000" stroke-opacity="1" stroke-width="3.2"/>
<circle clip-path="url(#clip832)" cx="752.448" cy="568.022" r="14.4" fill="#009af9" fill-rule="evenodd" fill-opacity="1" stroke="#000000" stroke-opacity="1" stroke-width="3.2"/>
<circle clip-path="url(#clip832)" cx="972.573" cy="639.056" r="14.4" fill="#009af9" fill-rule="evenodd" fill-opacity="1" stroke="#000000" stroke-opacity="1" stroke-width="3.2"/>
<circle clip-path="url(#clip832)" cx="1192.7" cy="721.39" r="14.4" fill="#009af9" fill-rule="evenodd" fill-opacity="1" stroke="#000000" stroke-opacity="1" stroke-width="3.2"/>
<circle clip-path="url(#clip832)" cx="1412.82" cy="837.828" r="14.4" fill="#009af9" fill-rule="evenodd" fill-opacity="1" stroke="#000000" stroke-opacity="1" stroke-width="3.2"/>
<circle clip-path="url(#clip832)" cx="1632.95" cy="958.06" r="14.4" fill="#009af9" fill-rule="evenodd" fill-opacity="1" stroke="#000000" stroke-opacity="1" stroke-width="3.2"/>
<circle clip-path="url(#clip832)" cx="1853.07" cy="1147.99" r="14.4" fill="#009af9" fill-rule="evenodd" fill-opacity="1" stroke="#000000" stroke-opacity="1" stroke-width="3.2"/>
<circle clip-path="url(#clip832)" cx="2073.2" cy="1190.62" r="14.4" fill="#009af9" fill-rule="evenodd" fill-opacity="1" stroke="#000000" stroke-opacity="1" stroke-width="3.2"/>
<circle clip-path="url(#clip832)" cx="2293.32" cy="1340.34" r="14.4" fill="#009af9" fill-rule="evenodd" fill-opacity="1" stroke="#000000" stroke-opacity="1" stroke-width="3.2"/>
</svg>
